<?xml version="1.0" encoding="utf-8"?>
<!-- Generator: Adobe Illustrator 26.0.2, SVG Export Plug-In . SVG Version: 6.00 Build 0)  -->
<svg version="1.1" id="_x3C_Layer_x3E_" xmlns="http://www.w3.org/2000/svg" xmlns:xlink="http://www.w3.org/1999/xlink" x="0px"
	 y="0px" viewBox="0 0 466.79 57.68" style="enable-background:new 0 0 466.79 57.68;" xml:space="preserve">
<style type="text/css">
	.st0{fill:#4D4D4F;}
	.st1{fill:url(#SVGID_1_);}
	.st2{fill:url(#SVGID_00000075877551845318485450000015069257669884545954_);}
	.st3{fill:url(#SVGID_00000160882356271278355130000016102017310114334399_);}
	.st4{fill:url(#SVGID_00000042015583596246063930000015781796742175829422_);}
	.st5{fill:url(#SVGID_00000054264508811225470170000003570662229953631368_);}
	.st6{fill:#231F20;}
	.st7{fill:none;stroke:#231F20;stroke-width:0.75;stroke-miterlimit:3.864;}
	.st8{fill-rule:evenodd;clip-rule:evenodd;fill:#231F20;}
</style>
<g>
	<path class="st0" d="M171.22,36.82c0.13-3.05,1.57-5.03,3.64-6.24c2.06-1.17,4.75-1.62,7.4-1.62c5.52,0,10.86,1.21,10.86,7.81
		v10.19c0,1.97,0,4.13,0.9,5.96h-7.67c-0.27-0.71-0.36-1.43-0.45-2.19c-1.98,2.06-4.89,2.87-7.67,2.87c-4.44,0-7.94-2.24-7.94-7.04
		c0-7.58,8.25-7,13.55-8.08c1.3-0.27,2.02-0.71,2.02-2.15c0-1.75-2.1-2.42-3.68-2.42c-2.11,0-3.46,0.94-3.82,2.92H171.22z
		 M181.09,48.08c3.63,0,4.84-2.11,4.67-7.02c-1.07,0.69-3.05,0.83-4.71,1.28c-1.71,0.42-3.14,1.15-3.14,3.03
		C177.9,47.3,179.38,48.08,181.09,48.08z"/>
	<path class="st0" d="M209.8,38.16c-0.04-1.98-1.8-3.37-3.72-3.37c-4.26,0-4.94,3.63-4.94,6.87c0,3,1.3,6.1,4.53,6.1
		c2.65,0,3.99-1.52,4.35-3.99h7.41c-0.68,6.24-5.52,9.83-11.71,9.83c-7,0-12.21-4.8-12.21-11.93c0-7.41,4.71-12.7,12.21-12.7
		c5.79,0,10.94,3.05,11.48,9.2H209.8z"/>
	<path class="st0" d="M218,29.64h7.4v3.18h0.09c1.39-2.33,3.86-3.86,6.69-3.86c2.91,0,5.52,0.94,6.78,3.77
		c1.84-2.47,4.13-3.77,7.27-3.77c7.4,0,8.21,5.61,8.21,10.05v13.9h-7.62V39.24c0-2.51-1.21-4-3.18-4c-3.28,0-3.59,2.52-3.59,6.28
		v11.39h-7.63V39.69c0-2.74-0.81-4.44-2.87-4.44c-2.74,0-3.91,1.58-3.91,6.33v11.35H218V29.64z"/>
	<path class="st0" d="M255.88,36.82c0.14-3.05,1.57-5.03,3.64-6.24c2.06-1.17,4.76-1.62,7.4-1.62c5.51,0,10.86,1.21,10.86,7.81
		v10.19c0,1.97,0,4.13,0.89,5.96h-7.67c-0.27-0.71-0.36-1.43-0.45-2.19c-1.97,2.06-4.89,2.87-7.67,2.87c-4.44,0-7.94-2.24-7.94-7.04
		c0-7.58,8.26-7,13.55-8.08c1.3-0.27,2.02-0.71,2.02-2.15c0-1.75-2.11-2.42-3.68-2.42c-2.11,0-3.46,0.94-3.82,2.92H255.88z
		 M265.75,48.09c3.64,0,4.85-2.06,4.66-6.86c-1.07,0.67-3.05,0.81-4.71,1.25c-1.7,0.41-3.14,1.12-3.14,2.96
		C262.57,47.33,264.05,48.09,265.75,48.09z"/>
	
		<linearGradient id="SVGID_1_" gradientUnits="userSpaceOnUse" x1="-277.4951" y1="329.1523" x2="-277.4951" y2="329.1523" gradientTransform="matrix(-44.5117 -4.8072 -4.8072 44.5117 -10631.0166 -15963.1719)">
		<stop  offset="0" style="stop-color:#FFC013"/>
		<stop  offset="0.1593" style="stop-color:#FFC013"/>
		<stop  offset="0.3087" style="stop-color:#C5B33E"/>
		<stop  offset="0.494" style="stop-color:#84A56F"/>
		<stop  offset="0.6627" style="stop-color:#509995"/>
		<stop  offset="0.8085" style="stop-color:#2B91B1"/>
		<stop  offset="0.9258" style="stop-color:#148CC2"/>
		<stop  offset="1" style="stop-color:#0C8AC8"/>
	</linearGradient>
	<path class="st1" d="M138.46,21.93L138.46,21.93"/>
	
		<linearGradient id="SVGID_00000160151735423277814110000007522070033717250993_" gradientUnits="userSpaceOnUse" x1="147.1486" y1="18.1361" x2="124.0178" y2="18.1361">
		<stop  offset="0" style="stop-color:#FFC116"/>
		<stop  offset="0.1577" style="stop-color:#D0B738"/>
		<stop  offset="0.4681" style="stop-color:#78A578"/>
		<stop  offset="0.7216" style="stop-color:#3797A7"/>
		<stop  offset="0.9051" style="stop-color:#0F8FC4"/>
		<stop  offset="1" style="stop-color:#008CCF"/>
	</linearGradient>
	<path style="fill:url(#SVGID_00000160151735423277814110000007522070033717250993_);" d="M143.28,14.27
		c0.57,0.34,1.99,1.25,3.87,2.34l5.73,0.37l-0.28-3.11l0,0c-1.59-0.83-3.03-1.57-4.1-2.07c-0.09-0.04-0.19-0.09-0.29-0.13
		l-0.15-0.09c-1.09-0.43-2.02-0.7-2.75-0.89c0,0-0.02-0.01-0.05-0.01c-1.48-0.34-3.07-0.51-4.75-0.51c-6.47,0-13.52,2.65-16.1,6.5
		c-2,2.98-0.95,5.96,2.67,7.8c0,0,0.01,0.01,0.03,0.02c1.88,0.94,4.37,1.53,7.3,1.61c0.66-1.14,1.96-2.98,3.98-4.13l0.08-0.05
		c0.45-0.39,1.93-1.63,3.56-2.58l-0.01,0.01c-0.15,0.09-0.29,0.17-0.44,0.26l-0.18,0.08c-1.38,0.56-2.93,0.87-4.45,0.87
		c-3.85,0-6.09-1.82-5.09-3.88c0.92-1.87,4.55-3.27,7.5-3.27c0.57,0,0.34-0.01,1.06,0.03c0.73,0.04,1.78,0.31,2.38,0.59
		C142.98,14.1,143.28,14.27,143.28,14.27z"/>
	
		<linearGradient id="SVGID_00000026162582557052975340000008004021552119012489_" gradientUnits="userSpaceOnUse" x1="152.6048" y1="20.0208" x2="152.6048" y2="33.5212">
		<stop  offset="0" style="stop-color:#FFC116"/>
		<stop  offset="0.5343" style="stop-color:#EC6C20"/>
		<stop  offset="1" style="stop-color:#DA1F2A"/>
	</linearGradient>
	<path style="fill:url(#SVGID_00000026162582557052975340000008004021552119012489_);" d="M145.04,25.23
		c0.24-0.58,0.94-1.43,1.81-2.01c0.22-0.15,0.45-0.29,0.68-0.42c0,0,3.57-2.16,5-3.02l0.2-3.34l-5.57,0.17l0.02,0.01
		c-1.92,0.98-3.77,1.95-5.14,2.72c-1.63,0.95-3.11,2.19-3.56,2.58l-0.07,0.06c-1.27,1.22-2.22,2.59-2.77,4.07h0
		c-0.04,0.11-0.08,0.22-0.12,0.33c-0.3,0.92-0.45,1.84-0.45,2.76c0.02,6.4,7.11,12.26,17.55,12.26c7.91,0,14.08-3.49,16.47-8.08
		c0.01-0.03,0.02-0.03,0.02-0.03c1.05-2.04,1.31-4.25,0.72-6.42c-1.75-0.18-4.75-0.64-6.93-1.78l-0.21-0.11
		c-0.57-0.16-2.33-0.69-4.47-1.81l0.08,0.04l0.17,0.12l0.07,0.05c1.07,0.85,1.76,1.89,1.93,3c0.48,3.14-3.02,5.99-7.86,5.99
		c-4.84,0-8.35-2.85-7.88-5.99C144.73,26.39,144.78,25.83,145.04,25.23z"/>
	
		<linearGradient id="SVGID_00000163042211649719782520000011203064506557679010_" gradientUnits="userSpaceOnUse" x1="158.2008" y1="18.0727" x2="172.8853" y2="18.0727">
		<stop  offset="0" style="stop-color:#FFC116"/>
		<stop  offset="0.127" style="stop-color:#EBC51E"/>
		<stop  offset="0.3235" style="stop-color:#D2CB29"/>
		<stop  offset="0.529" style="stop-color:#C0CF30"/>
		<stop  offset="0.7473" style="stop-color:#B5D135"/>
		<stop  offset="1" style="stop-color:#B2D236"/>
	</linearGradient>
	<path style="fill:url(#SVGID_00000163042211649719782520000011203064506557679010_);" d="M163.83,12.42l-0.05,0.04
		c-0.27,0.38-0.77,0.94-1.66,1.63l0.21-0.1c0.81-0.33,1.91-0.63,3.35-0.63c3.25,0,6.58,1.4,7.49,3.26c1,2.05-1.24,3.86-5.08,3.86
		c-0.69,0-1.52-0.01-2.38-0.21c-0.86-0.19-2.07-0.64-2.91-1.05c-0.84-0.41-2.58-1.32-4.23-2.17c-0.25-0.13-0.51-0.27-0.76-0.4
		l-5.5-0.3l0.21,3.42l0.01-0.01c0.18,0.1,0.44,0.26,0.76,0.45c1.61,0.99,3.05,1.87,4.11,2.5c0.26,0.15,0.53,0.3,0.81,0.45
		c2.14,1.12,3.9,1.65,4.47,1.81l0,0c2.33,0.68,4.76,1.02,7.17,1.03c9.37,0.02,13.89-4.65,10.78-9.37c-1.72-2.61-5.44-4.65-9.52-5.69
		l0.11,0.02c-1.94-0.5-4.04-0.8-6.14-0.84c0.01,0.55-0.14,1.55-1.18,2.25L163.83,12.42z"/>
	
		<linearGradient id="SVGID_00000034771990912484550380000008085854301585370014_" gradientUnits="userSpaceOnUse" x1="152.6023" y1="13.8099" x2="152.6023" y2="7.6849">
		<stop  offset="0" style="stop-color:#FFC116"/>
		<stop  offset="1" style="stop-color:#F68E1E"/>
	</linearGradient>
	<path style="fill:url(#SVGID_00000034771990912484550380000008085854301585370014_);" d="M157.78,16.64
		c1.62-0.93,2.97-1.71,3.82-2.22c0.17-0.11,0.34-0.21,0.5-0.33l0.02-0.01c0.95-0.73,1.45-1.32,1.71-1.7
		c0.46-0.74,0.59-1.49,0.39-2.23L164.18,10l-0.04-0.11c-1.02-2.72-6.15-4.62-11.67-4.61c-3.59,0-6.93,0.78-9.12,2.04
		c-0.04,0.02-0.13,0.07-0.17,0.1c-1.11,0.67-1.92,1.47-2.29,2.37c1.14,0.08,3.12,0.31,4.36,0.9c0.73,0.18,1.72,0.47,2.8,0.9
		c-0.57-0.41-1.04-0.95-0.94-1.59c0.2-1.33,2.61-2.35,5.39-2.35c2.77,0,5.18,1.01,5.38,2.35c0.03,0.2-0.01,0.38-0.06,0.56
		c-0.12,0.39-0.35,0.79-0.92,1.09c-0.13,0.07-0.22,0.12-0.33,0.17c-0.61,0.29-2.1,1.07-3.97,2.05l-0.32,2.89l5.54-0.1L157.78,16.64z
		"/>
	<line class="st6" x1="39.13" y1="34.1" x2="38.98" y2="34.25"/>
	<path class="st6" d="M40.42,24c0.15,0,0.27-0.12,0.27-0.27c0-0.15-0.12-0.27-0.27-0.27c-0.15,0-0.27,0.12-0.27,0.27
		C40.15,23.88,40.27,24,40.42,24z"/>
	<path class="st6" d="M52.94,12.58L52.94,12.58l-9.74-0.01v0.01h0l0.01,7.86c0,0.76,0.32,1.42,0.76,1.63l3.75,2.24
		c0.08,0.09,0.2,0.15,0.34,0.15c0.12,0,0.22-0.04,0.3-0.12l3.8-2.27c0.45-0.21,0.76-0.87,0.76-1.63L52.94,12.58L52.94,12.58z
		 M46.44,14.86H45.6v-2.01h0.84V14.86z M45.83,15.56l0.12-0.12l-0.08-0.14l0.16,0.01l0.09-0.16l0.09,0.16l0.16-0.01l-0.07,0.14
		l0.12,0.12l-0.15,0.03v0.17l-0.14-0.11l-0.14,0.11v-0.17L45.83,15.56z M43.48,18.07v-1.91h1.02v1.91H43.48z M43.65,15.3l0.16,0.01
		l0.09-0.16l0.09,0.16l0.16-0.01l-0.07,0.14l0.12,0.12l-0.15,0.03v0.17l-0.14-0.11l-0.14,0.11v-0.17l-0.15-0.03l0.12-0.12
		L43.65,15.3z M44.8,17.24l0.16,0.02l0.1-0.17l0.09,0.17l0.16-0.02l-0.07,0.14l0.12,0.12l-0.15,0.03v0.17l-0.14-0.11l-0.15,0.11
		v-0.17l-0.15-0.03l0.12-0.12L44.8,17.24z M45.48,15.7l-0.1-0.06c-0.09,0-0.13,0.15-0.2,0.15l-0.1-0.06l0.16-0.13
		c-0.63,0-0.65,0.29-0.74,0.29c-0.16,0,0.14-0.3,0.23-0.39c-0.13-0.02-0.2-0.18-0.34-0.26c0.07-0.09,0.1-0.05,0.18,0.01
		c0-0.07,0.05-0.14,0.2-0.14c0.28,0,0.2,0.27,0.25,0.27c0.05,0,0-0.27,0.19-0.27c0.28,0,0.63,0.72,0.31,0.72
		C45.37,15.83,45.48,15.72,45.48,15.7z M44.76,13.6l0.12-0.12l-0.07-0.14l0.16,0.02l0.1-0.17l0.09,0.16l0.16-0.01l-0.07,0.14
		l0.12,0.12l-0.15,0.03v0.17l-0.14-0.11l-0.15,0.11v-0.17L44.76,13.6z M44.5,12.85v2.01h-1.02v-2.01H44.5z M46.44,23.23l-2.33-1.39
		c-0.39-0.27-0.58-0.73-0.63-1.3v-2.21h2.96V23.23z M45.6,18.07v-1.91h0.84v1.91H45.6z M49.44,23.4l-1.07,0.64h-0.02
		c-0.08,0.06-0.17,0.1-0.28,0.1c-0.11,0-0.21-0.04-0.29-0.1l-1.07-0.64v-5.06h2.73V23.4z M49.44,18.07h-2.73v-5.22h2.73V18.07z
		 M52.67,20.54c-0.05,0.57-0.24,1.03-0.63,1.3l-2.33,1.39v-4.9h2.96V20.54z M52.67,18.07h-2.96v-5.22h2.96V18.07z"/>
	<path class="st6" d="M46.28,20.13c-0.01-0.03-0.37,0.12-0.27,0.11c0.01-0.11,0.21-0.32,0.3-0.4c-0.02-0.13-0.18-0.01-0.34,0.08
		c0.55-0.79,0.2-0.47-0.11-0.41c0.49-0.53,0.36-0.52,0-0.36c0.29-0.23,0.35-0.5,0.3-0.58c-0.27,0.36-0.51,0.31-0.51,0.64
		c0,0.22-0.08,0.58-0.2,0.7c-0.14,0.16-0.03-0.59-0.41-0.59c-0.12,0-0.41-0.01-0.49,0.14l0.19,0.28c0,0.08,0.07,0.29-0.06,0.29
		c-0.13,0-0.28-0.27-0.28-0.4c0-0.13,0-0.1,0-0.29c0-0.31-0.51-0.75-0.72-0.75c0,0.22,0.28,0.27,0.28,0.55
		c-0.12,0-0.29-0.22-0.29-0.08c0,0.14,0.18,0.16,0.18,0.29c0,0.12-0.21-0.05-0.21,0.09c0,0.11,0.11,0.09,0.14,0.21l-0.17,0.03
		l0.09,0.12c-0.03,0.03-0.05,0.09-0.05,0.28c0,0.62,0.39,0.91,0.68,0.91c0.2,0,0.17-0.14,0.19-0.21c0.01,0.11,0.11-0.05,0.11,0.13
		c0,0.19-0.2,0.11-0.2,0.27c0,0.22,0.31-0.01,0.31,0.24c0,0.3-0.04,0.29-0.04,0.4L45,21.66c0.08,0.03,0.07,0.26,0.22,0.25
		c0.09,0,0.11-0.24,0.19-0.26c-0.04,0.01,0.3,0.22,0.3,0.12c0-0.29-0.12-0.17-0.12-0.37c0-0.18,0.4-0.15,0.34-0.24
		c-0.05-0.08-0.09-0.03-0.13-0.17c0.01,0.02-0.31-0.46,0.07-0.21C46.26,21.05,46.3,20.18,46.28,20.13z"/>
	<path class="st6" d="M56.67,22.19c0.18,0,0.32-0.13,0.32-0.28c0-0.15-0.14-0.28-0.32-0.28c-0.17,0-0.32,0.13-0.32,0.28
		C56.35,22.06,56.49,22.19,56.67,22.19z"/>
	<path class="st6" d="M55.37,22.96c0.18,0,0.32-0.13,0.32-0.28c0-0.15-0.14-0.28-0.32-0.28c-0.17,0-0.32,0.13-0.32,0.28
		C55.05,22.84,55.2,22.96,55.37,22.96z"/>
	<path class="st6" d="M39.98,24.73c0.18,0,0.32-0.13,0.32-0.28c0-0.15-0.15-0.28-0.32-0.28c-0.17,0-0.32,0.12-0.32,0.28
		C39.66,24.61,39.81,24.73,39.98,24.73z"/>
	<path class="st6" d="M40.98,24.82c0.18,0,0.32-0.13,0.32-0.28c0-0.16-0.15-0.28-0.32-0.28c-0.18,0-0.32,0.13-0.32,0.28
		C40.66,24.69,40.81,24.82,40.98,24.82z"/>
	<path class="st6" d="M68.69,11.39c0.48,0.56,0.58,1.47,0.24,2.12c-0.19-0.02-0.15-0.25-0.19-0.39c-0.34-0.63-0.61-1.44-0.31-2.15
		C68.66,11,68.57,11.27,68.69,11.39z"/>
	<path class="st6" d="M28.03,12.16c-0.1,0.41-0.1,0.97,0,1.35l-0.15-0.07c-0.66-0.48-0.36-1.42-0.53-2.08l0.17-0.04
		C27.83,11.53,27.96,11.82,28.03,12.16z"/>
	<path class="st6" d="M70.15,12.21c0.1,0.19-0.08,0.38-0.22,0.46c-0.16,0.03-0.33-0.05-0.42-0.19c-0.06-0.19,0.05-0.36,0.2-0.44
		C69.88,12.03,70.05,12.06,70.15,12.21z"/>
	<path class="st6" d="M27,12.97c-0.03,0.15-0.08,0.31-0.22,0.38c-0.1,0-0.25,0-0.32-0.09c-0.1-0.09-0.12-0.24-0.07-0.36
		c0.07-0.12,0.2-0.14,0.32-0.15C26.83,12.79,26.95,12.83,27,12.97z"/>
	<path class="st6" d="M70.81,13.26c0.04,0.1,0.04,0.17,0,0.27c-0.12,0.16-0.29,0.23-0.46,0.16c-0.12-0.07-0.15-0.19-0.18-0.29
		c0.03-0.14,0.17-0.26,0.29-0.31C70.61,13.08,70.71,13.17,70.81,13.26z"/>
	<path class="st6" d="M69.85,13.27c0.13,0.07,0.03,0.24,0.02,0.34c-0.09,0.09-0.21,0.22-0.36,0.17c-0.09-0.08-0.19-0.08-0.22-0.21
		c0-0.17,0.07-0.34,0.24-0.39C69.66,13.15,69.74,13.22,69.85,13.27z"/>
	<path class="st6" d="M68.61,13.53c0,0.19,0.02,0.43-0.2,0.46c-0.2,0.07-0.34-0.1-0.39-0.24c-0.02-0.17,0.08-0.34,0.25-0.41
		C68.4,13.34,68.52,13.43,68.61,13.53z"/>
	<path class="st6" d="M28.85,13.61c0.05,0.17-0.12,0.28-0.22,0.36c-0.12,0.03-0.27-0.07-0.34-0.19c-0.12-0.12,0.03-0.22,0.07-0.32
		C28.53,13.31,28.78,13.43,28.85,13.61z"/>
	<path class="st6" d="M27.83,13.67c0,0.13-0.07,0.27-0.19,0.32c-0.13,0.05-0.27-0.05-0.34-0.15c-0.08-0.17,0.02-0.33,0.15-0.4
		C27.64,13.38,27.76,13.55,27.83,13.67z"/>
	<path class="st6" d="M64.5,13.74c0.17,0.36,0.3,0.79,0.34,1.23c-0.07,0.33,0.05,0.75-0.19,0.98c-0.24-0.09-0.25-0.38-0.41-0.53
		c-0.31-0.6-0.03-1.3,0.07-1.89C64.44,13.48,64.44,13.65,64.5,13.74z"/>
	<path class="st6" d="M27.03,13.94c0.05,0.21-0.1,0.31-0.22,0.43c-0.2,0.05-0.34-0.1-0.42-0.24c-0.02-0.17,0.09-0.34,0.22-0.41
		C26.78,13.7,26.95,13.79,27.03,13.94z"/>
	<path class="st6" d="M67.18,14.43c0.22,0.5,0.24,1.1,0.08,1.65l-0.1,0.08c-0.24-0.46-0.58-0.89-0.7-1.39
		c0-0.36,0.07-0.68,0.21-0.98c0.12-0.08,0.18,0.02,0.24,0.12C66.92,14.11,67.01,14.34,67.18,14.43z"/>
	<path class="st6" d="M69.32,14.13c-0.02,0.17-0.08,0.36-0.25,0.41c-0.17,0.03-0.34-0.02-0.39-0.2c-0.05-0.17,0.05-0.33,0.19-0.41
		C69.05,13.82,69.24,13.99,69.32,14.13z"/>
	<path class="st6" d="M27.85,14.66c0,0.13-0.12,0.29-0.25,0.32c-0.14,0.1-0.24-0.07-0.36-0.12c-0.05-0.14-0.08-0.26,0-0.39
		c0.05-0.1,0.17-0.1,0.27-0.13C27.66,14.42,27.81,14.49,27.85,14.66z"/>
	<path class="st6" d="M28.59,14.57c0.07,0.18-0.12,0.26-0.19,0.35c-0.2,0.07-0.31-0.09-0.39-0.21c-0.03-0.17,0.07-0.28,0.19-0.37
		C28.41,14.28,28.51,14.42,28.59,14.57z"/>
	<path class="st6" d="M69.79,14.52c-0.01,0.23-0.35,0.44-0.39,0.67c-0.19,0.46-0.59,0.81-1.05,0.96c-0.1,0.08-0.24,0.2-0.39,0.22
		c-0.03-0.34,0.27-0.65,0.46-0.96C68.78,14.95,69.27,14.66,69.79,14.52z"/>
	<path class="st6" d="M27.51,15.24c0.26,0.29,0.39,0.55,0.7,0.8l-0.12,0.17c-0.83-0.05-1.4-0.91-1.8-1.51
		c0.05-0.19,0.27-0.03,0.39-0.05C26.97,14.88,27.29,14.95,27.51,15.24z"/>
	<path class="st6" d="M70.03,15.48c-0.03,0.74-0.39,1.49-1.05,1.85c-0.19,0.07-0.39,0.26-0.58,0.14c0.36-0.74,0.9-1.33,1.49-1.99
		H70.03z"/>
	<path class="st6" d="M66.77,15.98c0.05,0.25-0.08,0.41-0.29,0.5c-0.19,0.01-0.31-0.14-0.39-0.27c-0.02-0.17,0.08-0.33,0.24-0.38
		l0.2-0.05C66.64,15.8,66.69,15.89,66.77,15.98z"/>
	<path class="st6" d="M26.57,16.13c0.32,0.22,0.61,0.53,0.92,0.8c-0.22,0.15-0.49,0.01-0.75,0.01c-0.58-0.2-0.97-0.7-1.57-0.87
		c0.02-0.19,0.24-0.12,0.36-0.17C25.91,15.87,26.22,16.04,26.57,16.13z"/>
	<path class="st6" d="M44.76,11.07c-0.95-0.38-1.58,0.62-2.55,0.5c-0.12,0.07-0.09,0.19-0.15,0.27l-0.19-0.02
		c-0.05-0.41-0.19-0.79-0.24-1.18c-0.1-0.17-0.05-0.41-0.14-0.58c-0.54-1.49,1.32-0.36,1.7-1.23c0.32-0.75-0.63-0.84-0.92-1.37V7.24
		c-0.27-0.27-0.56-0.36-0.73-0.72c0.12-0.43,0.17-0.89,0.05-1.32c-0.02-0.11-0.08-0.24-0.23-0.19c-0.33,0.44-0.56,0.8-0.87,1.23
		c-0.32-0.24-0.63-0.55-1-0.75C39.24,5.45,39,5.2,38.72,5.3c-0.05,0.1,0,0.19,0.05,0.25c0.02,0.67,0.36,1.2,0.83,1.68l0.05,0.26
		c-0.31,0.7-0.22,1.51-0.31,2.26c-0.76,1.95-2,3.83-3.68,5.18c-0.97,1.09-2.13,2.15-2.28,3.66c-0.05,0.24,0.03,0.53-0.15,0.7
		c-0.56-0.2-1.12-0.47-1.58-0.84c-0.78-0.55-1.91-0.48-2.41-1.47c-0.2-0.39,0.05-0.79,0.24-1.08c0.58-0.54,0.49-1.52,0.19-2.19
		l-0.13,0.08c-0.05,1.01-0.85,1.71-0.55,2.83c0.07,0.32,0.24,0.53,0.32,0.84c-0.12-0.03-0.29-0.03-0.39-0.08
		c-0.37-0.05-0.75-0.21-1.14-0.16c-0.78,0.36-1.85-0.08-2.48,0.63c-0.1,0.02-0.24,0.03-0.21,0.19c0.38,0,0.73,0.1,1.11,0.09
		c0.59,0.1,0.98-0.4,1.39-0.62h0.1c0.17-0.17,0.46-0.07,0.68-0.1c1.07,0.12,1.9,0.63,2.78,1.16v0.07c-0.34,0.15-0.73,0.25-1.07,0.44
		c-0.39,0.29-0.83,0.67-0.95,1.15c-0.27,0.43,0.09,0.8,0.26,1.16c0.02,0.17,0.03,0.38,0.18,0.44c0.54-0.58,0.03-1.3,0.12-1.96
		c0.13-0.51,0.61-0.75,1.1-0.89c0.97-0.41,1.66,0.38,2.44,0.82c-0.02,0.79,0.08,1.54-0.09,2.31c-0.24,0.08-0.54,0.14-0.8,0.12
		c-1.34,0.1-2.39,0.84-3.6,1.25c-0.54,0.19-1.19,0.17-1.73,0.38c0.43,0.12,0.87-0.03,1.31-0.05c1.66-0.24,2.94-1.52,4.74-1.3
		l0.04,0.05c-0.2,0.43-0.48,0.79-0.8,1.11c-0.05-0.19-0.07-0.34-0.24-0.44c-0.14-0.07-0.29,0-0.39,0.14v0.26
		c0.08,0.15,0.22,0.19,0.38,0.24c-0.03,0.15-0.22,0.22-0.32,0.36c-0.48,0.8-1.45,0.48-2,1.04c-0.09,0.12-0.39,0.19-0.26,0.38
		c0.64,0.07,1.27-0.11,1.75-0.45c0.63-0.7,1.29-1.37,1.92-2.04c0.1,0.55-0.05,1.11-0.37,1.56c-0.15-0.09-0.27-0.21-0.46-0.26
		c-0.17,0.03-0.29,0.21-0.31,0.34c0.07,0.12,0.14,0.26,0.25,0.35c-0.58,0.41-1.31,0.44-1.97,0.63c-1.24,0.15-2.44,0.25-3.7,0.27
		c-0.59-0.04-1.28,0.17-1.83,0c-0.64,0.12-1.34-0.09-1.87,0.27l0.01,0.26c0.78,0.51,1.85,0.1,2.74,0.26h6.69
		c0.5-0.02,0.99-0.04,1.38-0.26c0.87-0.5,1.34-1.39,1.78-2.26c0.17-0.31,0.29-0.66,0.36-1.02c0.17-0.58,0.69-0.99,1.27-1.04
		c0.08,0.89-0.08,1.78-0.29,2.6c-0.1,0.55-0.46,1.08-0.24,1.66c0.05,0.27,0.34,0.27,0.56,0.31c2.05-0.03,4.11-0.12,6.28,0.03
		c0.39,0.07,0.73,0.19,1.15,0.17c0.03-0.05,0.15-0.07,0.1-0.17c-0.05-0.19-0.19-0.43-0.41-0.48c-0.03-0.11-0.18-0.07-0.24-0.14
		c-1.09-0.62-2.4-0.29-3.67-0.27c-0.66,0.07-1.33,0.19-1.89-0.19c-0.25-0.31-0.07-1.29-0.07-1.29c0-0.38,0.93-3.08,1.05-3.3
		c0.03-0.26,0.13-0.5,0.1-0.79c0.14-0.34,0.1-0.79,0.1-1.16c0.07-0.55,0.34-1.06,0.53-1.59c0.1-0.26,0.19-0.53,0.29-0.79
		c0.1-0.33,0.13-0.63,0.34-0.89c0.55,0.35,1.1,0.34,1.36,0.97l0.23,1.42c0,0.09,0.07,0.26,0.19,0.16c0.44-0.29,0.31-0.94,0.31-1.39
		c0.1-0.53-0.27-0.79-0.42-1.25c-0.12-0.09-0.31-0.5-0.31-0.5c-0.07-0.37-0.89-0.63-0.71-1.1c0.1-0.39,0.2-0.75,0.58-0.98l0.08,0.12
		l0.2-0.14l0.02-1.43c0.55,0,1.37,0.07,1.93,0.07c0.15,0.05,0.27,0.17,0.44,0.19l0.13-0.19l1.38-0.27
		C45.67,11.74,45.32,11.07,44.76,11.07z"/>
	<path class="st6" d="M46.26,11.67l0.12-0.02L46.26,11.67z"/>
	<path class="st6" d="M31.46,16.44c0.02,0.21-0.1,0.32-0.25,0.39c-0.14-0.05-0.24-0.07-0.32-0.2c-0.07-0.19,0.1-0.33,0.24-0.4
		C31.26,16.27,31.43,16.29,31.46,16.44z"/>
	<path class="st6" d="M30.36,16.44c0.1,0.1,0.12,0.27,0.07,0.39c-0.12,0.1-0.31,0.19-0.41,0.05c-0.1-0.1-0.2-0.22-0.12-0.36
		C30.02,16.4,30.22,16.3,30.36,16.44z"/>
	<line class="st6" x1="54" y1="16.63" x2="54.02" y2="16.65"/>
	<path class="st6" d="M66.94,16.92c0.07,0.19-0.08,0.33-0.22,0.4c-0.17-0.05-0.39-0.09-0.39-0.31c0.02-0.14,0.14-0.22,0.25-0.25
		C66.74,16.69,66.87,16.81,66.94,16.92z"/>
	<path class="st6" d="M67.84,16.88c0.05,0.08,0.17,0.22,0.04,0.31l-0.17,0.14c-0.19,0.04-0.36-0.04-0.41-0.21
		c-0.03-0.19,0.12-0.28,0.25-0.36C67.67,16.73,67.76,16.81,67.84,16.88z"/>
	<path class="st6" d="M26.1,17.09c-0.06,0.2-0.24,0.29-0.46,0.22l-0.14-0.22c0.02-0.12,0.05-0.24,0.19-0.29
		C25.9,16.81,26.05,16.9,26.1,17.09z"/>
	<path class="st6" d="M31.82,17.38c-0.02,0.13-0.17,0.26-0.29,0.32c-0.17,0.02-0.29-0.12-0.37-0.24c0-0.14,0.07-0.31,0.2-0.34
		C31.55,17.05,31.75,17.19,31.82,17.38z"/>
	<path class="st6" d="M30.82,17.26l0.05,0.28c-0.1,0.08-0.25,0.24-0.42,0.14c-0.1-0.09-0.22-0.16-0.19-0.33
		c0.07-0.07,0.15-0.17,0.25-0.21C30.65,17.1,30.72,17.19,30.82,17.26z"/>
	<path class="st6" d="M70.44,17.46c0,0.14-0.13,0.27-0.22,0.32c-0.14,0.05-0.29,0.02-0.37-0.08c-0.1-0.03-0.07-0.17-0.07-0.26
		c0.09-0.12,0.2-0.19,0.32-0.22C70.25,17.26,70.35,17.36,70.44,17.46z"/>
	<path class="st6" d="M71.53,17.62c-0.05,0.15-0.17,0.29-0.32,0.31c-0.1-0.01-0.29-0.05-0.25-0.21c0-0.12,0.07-0.24,0.16-0.27
		C71.27,17.36,71.48,17.45,71.53,17.62z"/>
	<path class="st6" d="M28.03,17.86c0.04,0.21-0.04,0.34-0.2,0.41c-0.12,0.07-0.24-0.01-0.32-0.08c-0.08-0.09-0.15-0.22-0.08-0.34
		c0.03-0.16,0.19-0.12,0.29-0.19C27.86,17.67,27.95,17.74,28.03,17.86z"/>
	<path class="st6" d="M28.86,18.01c0.05,0.14-0.1,0.19-0.13,0.29c-0.09,0.05-0.21,0.1-0.3,0.03c-0.12-0.1-0.26-0.25-0.14-0.41
		C28.43,17.67,28.78,17.81,28.86,18.01z"/>
	<path class="st6" d="M69.44,17.93c0.02,0.17-0.14,0.29-0.24,0.39c-0.15,0.03-0.31-0.07-0.34-0.21c-0.01-0.14,0.07-0.24,0.19-0.33
		C69.2,17.77,69.35,17.79,69.44,17.93z"/>
	<path class="st6" d="M70.83,18.2c-0.03,0.15-0.02,0.33-0.19,0.43c-0.14,0.03-0.31,0.02-0.41-0.07c-0.1-0.09-0.12-0.24-0.07-0.36
		c0.08-0.14,0.24-0.24,0.41-0.21C70.69,18.06,70.73,18.15,70.83,18.2z"/>
	<path class="st6" d="M27.39,18.56c0.07,0.14-0.08,0.17-0.13,0.24c-0.12,0.07-0.24,0.02-0.34-0.03c-0.12-0.07-0.07-0.24-0.05-0.33
		C27.01,18.15,27.32,18.35,27.39,18.56z"/>
	<path class="st6" d="M69.76,18.88l0.02,0.15c-0.41,0.2-1.02,0.25-1.37-0.07c-0.2-0.17-0.46-0.24-0.68-0.38
		c0.08-0.22,0.39-0.2,0.61-0.26C68.83,18.41,69.22,18.87,69.76,18.88z"/>
	<path class="st6" d="M28.2,18.73c0.03,0.13-0.07,0.19-0.1,0.29c-0.07,0.1-0.2,0.07-0.29,0.04c-0.15-0.11-0.22-0.29-0.12-0.43
		C27.88,18.44,28.1,18.54,28.2,18.73z"/>
	<path class="st6" d="M29.7,18.83c0.06,0.15-0.04,0.29-0.17,0.38c-0.12,0.07-0.22-0.03-0.33-0.05c-0.08-0.12-0.24-0.26-0.08-0.39
		C29.28,18.51,29.58,18.64,29.7,18.83z"/>
	<path class="st6" d="M49.33,19.56c-0.03,0.34-0.6-0.05-0.52,0.41c0.08,0.32,0.15,0.71,0.34,0.96c0.16,0.23,0.08,0.59,0.06,0.86
		c-0.15,0.24-0.39,0.42-0.65,0.55c-0.48-0.05-1.19,0.25-1.42-0.36c-0.1-0.26-0.27-0.52-0.27-0.81l0.16-0.08
		c0-0.11-0.13-0.18-0.11-0.29c0.55-0.1-0.23-0.58,0.24-0.62c0.39,0.41,1.02,0.28,1.36,0.72c0.08,0.06,0.15,0.16,0.24,0.21
		c-0.06-0.41-0.26-0.81-0.32-1.25c-0.05-0.23,0.03-0.44,0.19-0.57C48.93,19.05,49.17,19.37,49.33,19.56z"/>
	<path class="st6" d="M31.2,19.45c0.05,0.17-0.09,0.27-0.19,0.36c-0.15,0.07-0.24-0.1-0.3-0.19c-0.05-0.17,0.07-0.26,0.17-0.34
		C30.99,19.28,31.12,19.33,31.2,19.45z"/>
	<path class="st6" d="M41.67,19.62c0.2,0.67,0.14,1.35-0.21,1.92c-0.01,0.14,0.04,0.36-0.15,0.34c-0.46-0.63-0.12-1.52,0.07-2.19
		C41.41,19.51,41.62,19.45,41.67,19.62z"/>
	<path class="st6" d="M56.21,19.94c0.24,0.48,0.25,1.11,0.03,1.59l-0.14,0.14c-0.19-0.39-0.34-0.79-0.39-1.21
		c0.08-0.31,0.18-0.58,0.2-0.91C56.16,19.5,56.14,19.81,56.21,19.94z"/>
	<path class="st6" d="M32.52,20.13c-0.1,0.21-0.39,0.26-0.58,0.4c-0.41,0.31-1,0.38-1.51,0.29c0.44-0.61,1.12-0.97,1.93-0.8
		L32.52,20.13z"/>
	<path class="st6" d="M25.54,20.75c0.63,0.44,0.8,1.06,1.17,1.67c0.05,0.07,0.22,0.09,0.15,0.22c-0.14,0.11-0.27-0.1-0.46-0.07
		c-0.64-0.29-1.05-1.01-1.03-1.76L25.54,20.75z"/>
	<path class="st6" d="M55.55,21.28c0.02,0.17-0.02,0.34-0.15,0.39c-0.19,0.05-0.34-0.05-0.39-0.21c-0.05-0.12,0.05-0.19,0.08-0.27
		C55.22,21.05,55.46,21.12,55.55,21.28z"/>
	<path class="st6" d="M62.71,22.18c0-0.32,0.08-0.63,0.12-0.94c0.05-0.1,0.09-0.22,0.07-0.36c0.41-0.55,1.24-0.38,1.88-0.33
		c0.26,0.14,0.58,0.12,0.85,0.19c0.12-0.09,0.29-0.11,0.43-0.09c0.54-0.29,0.19-0.92,0.22-1.42l-0.21-0.51
		c-0.05-0.1-0.1-0.22-0.14-0.34c-0.1-0.12-0.17-0.34-0.27-0.46c-0.29-0.75-0.85-1.18-1.32-1.78c-0.87-1.13-2.23-1.76-3.58-2.21
		c-1.34-0.46-2.7,0.14-3.91,0.57c-0.38-0.1-0.56-0.39-0.66-0.72c-0.07-0.65,0.07-1.28,0.32-1.81c0.05-0.43,0.34-0.75,0.46-1.15
		c0.3-0.96,0.63-1.9,0.69-2.94c0.03-0.63-0.44-1.08-0.92-1.35c-0.32-0.09-0.7-0.07-0.93,0.19c-0.22,0.46-0.7,0.77-1.1,0.99
		c-0.03,0.29,0.32,0.1,0.44,0.2c0.37,0.07,0.8-0.05,1.1,0.19c0.03,0.68-0.36,1.25-0.72,1.76c-0.58,0.85-1.19,1.73-1.54,2.66
		l-0.07-0.07l0.08,4.18c0.54,0.9,1.21,1.93,2.23,2.27c0.54,0.44,1.22,0.97,1.95,0.58c0.39-0.12,0.42,0.43,0.61,0.65
		c0.21,0.63-0.25,1.08-0.29,1.66l-0.44,0.94c-0.51,0.99-0.97,2.05-1.75,2.89c-0.26,0-0.41,0.27-0.66,0.29
		c-0.14,0.19-0.41,0.05-0.58,0.12c-0.52,0.22-1.27,0.09-1.63,0.58l0.13,0.09c1.04,0.02,2.19,0.08,3.29,0.03
		c0.14-0.05,0.25-0.17,0.27-0.33c-0.15-0.29,0.05-0.55,0.19-0.77c0.08-0.42,0.36-0.67,0.48-1.06c0.35-0.7,0.76-1.39,1.15-2.09
		l0.52-0.86c0.12-0.29,0.32-0.65,0.53-0.96c0.13-0.14,0.2-0.29,0.3-0.46c0.02-0.17-0.07-0.24-0.17-0.36
		c0.12-0.12,0.31-0.09,0.46-0.12c0.42,0.26,0.87,0.67,0.95,1.13l0.16,0.44l0.07,0.21l-0.04,0.56l0.07,0.53
		c0.09,0.82-0.07,1.66-0.15,2.48c-0.29,0.99-1.42,0.89-2.24,1.11c-0.2,0.14-0.59,0.07-0.59,0.41c0.98,0.21,2.14,0.09,3.19,0.07
		c0.17-0.07,0.2-0.22,0.29-0.38c0.04-0.22,0.25-0.41,0.19-0.65c-0.19-0.24-0.02-0.62-0.07-0.94c0.03-0.08,0.03-0.2,0-0.32
		c0.13-0.5,0.1-1.09,0.2-1.57L62.71,22.18z"/>
	<path class="st6" d="M71.07,21.52c-0.54,0.77-1.12,1.64-2.07,1.92l-0.17-0.05c0.58-0.62,0.88-1.57,1.78-1.8
		C70.74,21.52,70.93,21.45,71.07,21.52z"/>
	<path class="st6" d="M24.7,22.36c-0.08,0.06-0.01,0.22-0.17,0.24c-0.14,0.07-0.29-0.02-0.36-0.16c-0.07-0.17,0.08-0.34,0.22-0.38
		C24.54,22.13,24.67,22.18,24.7,22.36z"/>
	<path class="st6" d="M29.59,22.6c0.05,0.16-0.12,0.16-0.2,0.19c-0.71,0.25-1.44,0.02-1.95-0.5l0.07-0.15
		C28.2,22.3,29.02,22.17,29.59,22.6z"/>
	<path class="st6" d="M25.64,22.37l0.03,0.26c-0.1,0.16-0.26,0.19-0.42,0.16c-0.1-0.05-0.16-0.12-0.22-0.22
		c0.02-0.17,0.15-0.27,0.29-0.33C25.45,22.25,25.56,22.29,25.64,22.37z"/>
	<path class="st6" d="M41.55,22.46c0.03,0.15-0.1,0.25-0.2,0.33c-0.16,0.03-0.29-0.03-0.36-0.14c-0.05-0.12,0-0.29,0.12-0.32
		C41.26,22.29,41.5,22.3,41.55,22.46z"/>
	<path class="st6" d="M71.71,22.53c0.05,0.17-0.1,0.26-0.22,0.36c-0.1,0.05-0.22,0-0.32-0.05c-0.02-0.08-0.12-0.16-0.08-0.27
		c0.07-0.15,0.22-0.22,0.39-0.2L71.71,22.53z"/>
	<path class="st6" d="M72.83,22.46c0.1,0.15,0.02,0.27-0.07,0.39c-0.07,0.12-0.21,0.16-0.31,0.1c-0.1-0.1-0.24-0.15-0.25-0.31
		c0-0.14,0.15-0.24,0.25-0.29C72.63,22.29,72.7,22.46,72.83,22.46z"/>
	<path class="st6" d="M23.99,22.95c0.01,0.12-0.09,0.19-0.12,0.29c-0.09,0.03-0.17,0.1-0.27,0.07c-0.12-0.05-0.2-0.16-0.25-0.28
		c0.03-0.15,0.13-0.29,0.3-0.34C23.79,22.73,23.94,22.8,23.99,22.95z"/>
	<path class="st6" d="M59.76,22.95l0.02,0.22c-0.1,0.14-0.24,0.26-0.41,0.17c-0.1-0.1-0.22-0.2-0.17-0.36
		C59.33,22.8,59.62,22.73,59.76,22.95z"/>
	<path class="st6" d="M26.73,23.21c-0.04,0.12-0.08,0.24-0.24,0.26c-0.15,0.02-0.2-0.12-0.29-0.19c0-0.15-0.02-0.31,0.14-0.39
		C26.54,22.82,26.73,22.99,26.73,23.21z"/>
	<path class="st6" d="M25.09,23.25c0.05,0.17-0.07,0.29-0.17,0.38c-0.2,0.07-0.37-0.08-0.46-0.24c0.01-0.15,0.13-0.34,0.3-0.39
		C24.93,22.99,25.01,23.16,25.09,23.25z"/>
	<path class="st6" d="M60.88,23.21c0.03,0.17-0.02,0.34-0.19,0.41c-0.2,0.07-0.37-0.1-0.46-0.24c0.09-0.14,0.1-0.33,0.31-0.36
		C60.69,23.02,60.79,23.09,60.88,23.21z"/>
	<path class="st6" d="M25.9,23.28c0.05,0.12-0.05,0.17-0.09,0.26c-0.08,0-0.13,0.1-0.24,0.06c-0.07-0.08-0.2-0.12-0.22-0.24
		c-0.01-0.17,0.1-0.26,0.22-0.33C25.74,23.02,25.84,23.14,25.9,23.28z"/>
	<path class="st6" d="M70.78,23.41c-0.05,0.14-0.15,0.21-0.29,0.28c-0.14,0.03-0.22-0.09-0.32-0.14l-0.02-0.3
		C70.32,22.95,70.78,23.09,70.78,23.41z"/>
	<path class="st6" d="M72.07,23.49c-0.05,0.19-0.24,0.27-0.41,0.29c-0.15-0.07-0.32-0.18-0.21-0.39c0.07-0.07,0.1-0.14,0.21-0.15
		C71.87,23.16,72.02,23.32,72.07,23.49z"/>
	<path class="st6" d="M64,23.6c0.08,0.23-0.12,0.29-0.25,0.4c-0.12-0.02-0.22-0.07-0.32-0.14c-0.04-0.19,0.05-0.36,0.24-0.45
		C63.82,23.41,63.9,23.49,64,23.6z"/>
	<path class="st6" d="M59.33,23.81l0.03,0.21c-0.1,0.07-0.24,0.24-0.39,0.14c-0.12-0.07-0.2-0.17-0.17-0.32
		C58.89,23.64,59.25,23.62,59.33,23.81z"/>
	<path class="st6" d="M60.28,23.93c0.02,0.14-0.02,0.21-0.14,0.27c-0.12,0.12-0.26-0.01-0.37-0.05l-0.02-0.26l0.22-0.13
		C60.1,23.79,60.23,23.79,60.28,23.93z"/>
	<path class="st6" d="M31.46,23.94c0.1,0.1-0.01,0.22-0.03,0.33c-0.09,0.1-0.27,0.19-0.43,0.08c-0.17-0.07-0.15-0.29-0.12-0.43
		c0.1-0.03,0.1-0.15,0.24-0.15C31.28,23.79,31.36,23.86,31.46,23.94z"/>
	<path class="st6" d="M65.82,24.02c0.03,0.17-0.14,0.24-0.26,0.27c-0.2,0.07-0.3-0.09-0.39-0.22c0-0.11,0.1-0.17,0.13-0.26
		C65.55,23.71,65.7,23.88,65.82,24.02z"/>
	<path class="st6" d="M64.9,24.02c0.07,0.17-0.12,0.26-0.19,0.34c-0.12,0.05-0.27,0.03-0.37-0.07c-0.09-0.05-0.09-0.15-0.09-0.25
		c0.1-0.09,0.15-0.19,0.27-0.22C64.68,23.81,64.83,23.89,64.9,24.02z"/>
	<path class="st6" d="M72.56,24.22c0.03,0.23-0.27,0.12-0.39,0.18c-0.72,0.43-1.63,0.1-2.31-0.16c0.05-0.22,0.31-0.14,0.44-0.22
		c0.73-0.46,1.48,0.1,2.2,0.14L72.56,24.22z"/>
	<path class="st6" d="M26.08,24.02l-0.07,0.12c-0.63,0.38-1.44,0.63-2.19,0.39l-0.07-0.11c0.63-0.46,1.46-0.58,2.28-0.46
		L26.08,24.02z"/>
	<path class="st6" d="M67.55,24.14c0,0.14-0.07,0.25-0.17,0.32c-0.17,0.05-0.39,0-0.44-0.19c-0.05-0.14,0.09-0.27,0.22-0.33
		C67.28,23.94,67.49,23.96,67.55,24.14z"/>
	<path class="st6" d="M29.12,24.2c-0.07,0.14-0.04,0.28-0.2,0.34c-0.17,0.07-0.37-0.09-0.42-0.22c-0.05-0.19,0.08-0.24,0.17-0.32
		C28.86,23.89,29.02,24.05,29.12,24.2z"/>
	<path class="st6" d="M27.92,24.29c0.05,0.12-0.06,0.19-0.09,0.28c-0.09,0.1-0.24,0.08-0.34,0.05c-0.12-0.1-0.24-0.22-0.19-0.41
		c0.1-0.08,0.15-0.13,0.27-0.19C27.73,24.05,27.88,24.12,27.92,24.29z"/>
	<path class="st6" d="M68.74,24.68c-0.02,0.15-0.14,0.27-0.27,0.31c-0.14,0.02-0.25-0.09-0.32-0.17c-0.05-0.1-0.03-0.24,0.07-0.33
		l0.22-0.08C68.59,24.42,68.71,24.54,68.74,24.68z"/>
	<path class="st6" d="M26.66,24.49c0.05,0.14-0.07,0.19-0.09,0.29c-0.05,0.29-0.24,0.48-0.37,0.74c-0.32,0.39-0.78,0.39-1.24,0.51
		l-0.07-0.13c0.49-0.63,1.02-1.13,1.72-1.44L26.66,24.49z"/>
	<path class="st6" d="M67.89,24.87c0.03,0.2-0.14,0.23-0.26,0.32c-0.15,0-0.27-0.09-0.34-0.2c-0.05-0.19,0.12-0.26,0.22-0.34
		C67.69,24.61,67.84,24.73,67.89,24.87z"/>
	<path class="st6" d="M28.61,24.87l0.05,0.08c-0.01,0.19-0.15,0.24-0.25,0.33c-0.15,0-0.27-0.05-0.37-0.17
		c-0.07-0.15,0-0.34,0.17-0.39C28.36,24.7,28.56,24.72,28.61,24.87z"/>
	<path class="st6" d="M71.02,25.39c0.17-0.02,0.21-0.23,0.39-0.26c0.17-0.03,0.32,0.07,0.41,0.19c0.07,0.21-0.08,0.3-0.22,0.39
		c-0.12,0.08-0.37-0.1-0.36,0.12c0.12,0.08,0.22,0.2,0.24,0.34l-0.2,0.02c-0.49-0.21-1.02-0.55-1.22-1.06
		c-0.07-0.15-0.39-0.28-0.2-0.41C70.34,24.68,70.74,25.08,71.02,25.39z"/>
	<path class="st6" d="M72.65,24.85l-0.02,0.33c-0.09,0.17-0.34,0.1-0.49,0.08c-0.09-0.08-0.17-0.17-0.14-0.31
		c0.07-0.1,0.14-0.17,0.26-0.22C72.41,24.7,72.53,24.77,72.65,24.85z"/>
	<path class="st6" d="M66.48,25.78c0.15,0.19,0.3,0.48,0.37,0.68l-0.15,0.03c-0.58-0.33-1.33-0.68-1.55-1.37
		c-0.05-0.07-0.19-0.15-0.17-0.28c0.44-0.08,0.87,0.24,1.17,0.48C66.28,25.5,66.42,25.59,66.48,25.78z"/>
	<path class="st6" d="M27.66,25.13c0.07,0.15-0.07,0.27-0.15,0.34c-0.19,0.04-0.29-0.03-0.39-0.14c-0.12-0.18,0.1-0.34,0.24-0.41
		C27.49,24.9,27.58,25.04,27.66,25.13z"/>
	<path class="st6" d="M68.61,25.52c0.02,0.1-0.12,0.17-0.17,0.24c-0.14,0.02-0.27,0.07-0.39-0.05c-0.03-0.09-0.12-0.22-0.02-0.31
		C68.22,25.16,68.49,25.35,68.61,25.52z"/>
	<path class="st6" d="M72.83,25.76c0.05,0.2-0.1,0.34-0.24,0.43c-0.17,0.05-0.3-0.07-0.41-0.16c-0.08-0.1-0.02-0.2,0-0.32
		c0.12-0.1,0.27-0.19,0.44-0.12L72.83,25.76z"/>
	<path class="st6" d="M61.08,28.12c0,0.21-0.37,0.16-0.52,0.31c-0.53,0.27-1.16,0.27-1.79,0.26v-0.1
		C59.38,28.07,60.27,27.88,61.08,28.12z"/>
	<path class="st6" d="M36.3,28.86c-0.02,0.15-0.1,0.24-0.25,0.29c-0.12,0-0.24-0.07-0.29-0.17c-0.07-0.21,0.1-0.29,0.22-0.38
		C36.14,28.62,36.27,28.73,36.3,28.86z"/>
	<path class="st6" d="M60.79,29.04c-0.03,0.16-0.08,0.33-0.25,0.4c-0.16,0.03-0.26-0.05-0.37-0.12l-0.05-0.27
		C60.23,28.73,60.67,28.73,60.79,29.04z"/>
	<path class="st6" d="M64.18,29.11c-0.43,0.28-0.9,0.6-1.46,0.6L61.8,29.7l-0.09-0.07c0.56-0.68,1.58-0.68,2.47-0.61V29.11z"/>
	<path class="st6" d="M31.65,29.52c0,0.16-0.07,0.28-0.22,0.33c-0.17,0.03-0.29-0.04-0.36-0.15c-0.07-0.16,0-0.31,0.14-0.4
		C31.4,29.18,31.58,29.39,31.65,29.52z"/>
	<path class="st6" d="M32.5,29.7l-0.07,0.22c-0.11,0.05-0.24,0.09-0.32,0c-0.12-0.06-0.15-0.19-0.1-0.29
		c0.05-0.1,0.15-0.08,0.2-0.15C32.33,29.52,32.45,29.57,32.5,29.7z"/>
	<path class="st6" d="M26,31.42c-0.17,0.21-0.44-0.05-0.63-0.15c-0.59-0.34-0.58-1.01-1.17-1.41c0.07-0.2,0.22,0.01,0.34-0.01
		c0.1,0.06,0.24,0.14,0.35,0.18C25.47,30.36,25.6,30.91,26,31.42z"/>
	<path class="st6" d="M75.5,24.78c-0.27-0.5-0.73-0.7-1.27-0.7c-0.44,0.03-0.77,0.32-0.95,0.7c-0.1,0.38,0.04,0.72,0.32,0.94
		c0.12,0.05,0.27,0.03,0.34-0.08c0.08-0.22-0.16-0.22-0.19-0.4c-0.07-0.24,0.02-0.44,0.19-0.6c0.17-0.17,0.46-0.08,0.66-0.08
		c0.21,0.14,0.41,0.26,0.51,0.5c0.1,0.29,0.1,0.62,0,0.91c-0.19,0.43-0.61,0.77-1.05,0.86c-1.41,0.21-16.88,0.14-16.88,0.14
		c-1.81,0.17-3.89-0.34-5.45,0.62c-0.72,0.34-1.07,1.13-1.26,1.83c-0.46,0.41-0.95,0.89-1.32,1.35l-0.05-0.05
		c0.08-0.41,0.27-0.77,0.36-1.18c0.26-0.34,0.26-0.8,0.44-1.18c0.64-1.04,1.26-2.11,2.26-2.84c0.42-0.57,1.17-0.46,1.82-0.46
		c0.7,0.33,1.51,0.43,2.36,0.34l0.05-0.12c-0.24-0.22-0.63-0.31-0.9-0.53c-0.68-0.32-1.33,0.1-2.04,0.05l-0.05-0.1
		c0.65-0.48,1.37-0.82,2.1-1.13c0.6-0.32,1.22-0.49,1.85-0.73c0.26,0,0.49-0.22,0.73-0.07l0.9-0.24l0.14,0.05
		c0.76-0.26,1.73-0.02,2.6-0.03l0.12,0.1l0.81,0.21c0.31,0.03,0.45,0.39,0.77,0.41c0.17-0.24-0.19-0.34-0.27-0.49
		c0.37-0.09,0.8,0.01,1.13,0.17l-0.17,0.19c-0.1,0.19,0.05,0.33,0.2,0.4c0.12,0.04,0.21-0.05,0.29-0.09
		c0.22-0.15-0.02-0.31,0.05-0.44c1.26,0.22,2.46,0.53,3.62,1.03c0.32,0.1,0.63,0.34,0.98,0.32c-0.36-0.32-0.85-0.49-1.29-0.68
		c-0.29-0.17-0.7-0.19-0.92-0.43l0.22-0.12c0.58-0.07,1.07-0.49,1.48-0.96c0.03-0.1,0.22-0.07,0.2-0.2
		c-0.15-0.17-0.41,0.05-0.61,0.04c-0.71,0.14-1.02,0.97-1.73,1.13c-0.87-0.2-1.75-0.41-2.61-0.63c-0.42-0.07-0.88-0.1-1.27-0.27
		l-0.95-0.08h-1.73L59.98,22c0.61-0.15,1.14-0.51,1.75-0.67l4.55-2.09c0.48-0.42,0.9-0.91,1.29-1.4c0.02-0.14-0.07-0.27-0.19-0.33
		c-0.12-0.05-0.25-0.03-0.34,0.07c-0.2,0.15,0,0.34,0,0.53c-0.2,0.27-0.53,0.51-0.78,0.67l-4.69,2.11
		c-0.68,0.29-1.35,0.62-2.07,0.77l-0.98,0.15c-0.07,0.21-0.24,0.33-0.43,0.39c-0.27,0.05-0.49,0.22-0.78,0.22
		c-2.21,0.85-4.5,1.76-6.25,3.51c0.1-0.2,0.15-0.46,0.17-0.72c-0.03-0.26-0.02-0.55-0.19-0.75c-0.04-0.09-0.17-0.37-0.13-0.47
		l-0.25,0.16c-0.16,0.38-0.29,1.06-0.14,1.46c0.05,0.31,0.31,0.66,0.07,0.94c-0.81,0.99-1.27,2.19-1.82,3.32
		c-0.2-0.03-0.3-0.22-0.39-0.41c0.58-0.74,1.04-1.55,1.21-2.5c0.12-0.09,0.03-0.31,0.15-0.41c-0.04-0.28,0.15-0.55,0.02-0.77
		c0.11-0.37-0.5-0.72-0.11-0.96l-0.32,0.15c-0.73,0.96,0.38,2.39-0.45,3.32v0.06c-0.23,0.31-0.35,0.62-0.68,0.82
		c-0.41-0.17-0.56-0.63-0.8-0.98c-0.37-0.36-0.37-1.09-0.15-1.59c0.15-0.5-0.1-0.92-0.16-1.37l-0.17-0.1
		c-0.41,0.53-0.56,1.36-0.24,2c0.17,0.31,0.19,0.74,0.44,0.99c0.15,0.49,0.46,0.82,0.73,1.27c0.07,0.17-0.1,0.2-0.19,0.29
		c-0.19-0.12-0.15-0.4-0.32-0.51c-0.56-1.2-1.29-2.16-2.17-3.13c-0.04-0.15-0.19-0.29-0.11-0.46c0.33-0.31,0.39-0.91,0.22-1.3
		l-0.11-0.27l-0.26-0.21c0.04,0.6-0.36,1.13-0.18,1.76v0.04c-1.75-1.32-3.68-2.5-5.66-3.42l-0.16,0.44c0.5,0.13,1.82,0.93,1.82,0.93
		c0.6,0.22,1.14,0.58,1.7,0.91c2.31,1.29,3.84,3.41,4.87,5.77c0.01,0.19,0.19,0.4,0.07,0.58c-0.36-0.55-0.87-0.86-1.29-1.3
		c-0.12-0.8-0.59-1.57-1.29-1.9c-0.25-0.38-0.8-0.41-1.22-0.53l-6.18-0.04c-5.03-0.07-9.61,0.15-14.6,0.07
		c-0.7-0.07-1.55-0.31-1.75-1.04c-0.13-0.26-0.13-0.7,0-0.94c0.18-0.33,0.53-0.43,0.86-0.46c0.27,0.03,0.46,0.29,0.58,0.48
		c0,0.22-0.19,0.42-0.27,0.61c0.02,0.07,0.09,0.2,0.2,0.15c0.22-0.08,0.39-0.32,0.45-0.55c0.02-0.12,0.07-0.29-0.05-0.38
		c-0.1-0.36-0.47-0.62-0.8-0.7c-0.42-0.04-0.87,0.09-1.15,0.4c-0.41,0.34-0.39,0.96-0.27,1.43c0.27,0.75,1.07,1.27,1.83,1.37
		l16.53,0.07c1.61,0.08,3.43-0.19,5.06,0.13c0.59,0.19,1.22,0.64,1.38,1.3l-0.12,0.02c-1.34-0.87-3.11-1.2-4.83-0.99
		c-0.68-0.03-1.29,0.22-1.9,0.39c-0.32,0.06-0.63-0.08-0.83-0.27c-0.61-0.55-1.68-0.51-2.46-0.31l0.02,0.12
		c0.83-0.07,1.33,0.65,2.07,0.74c0.17,0.03,0.31-0.16,0.46-0.02c-0.78,0.38-1.53,0.82-2.36,1.06c-0.25-0.05-0.39-0.29-0.59-0.43
		c-0.32-0.36-0.92-0.21-1.36-0.24c-0.15,0.03-0.29-0.07-0.39,0c0.14,0.28,0.44,0.43,0.73,0.56c0.42,0.19,0.92-0.01,1.31,0.24
		c-0.1,0.12-0.24,0.16-0.36,0.24c-0.8,0.31-1.46,1.03-2.34,0.97c-0.94,0.1-1.89-0.17-2.52-0.82c-0.27-0.67-0.97-1.03-1.71-0.99
		l-0.1,0.12c0.38,0.22,0.66,0.66,1.04,0.92c0.24,0.29,0.7,0,0.92,0.33c0.32,0.22,0.73,0.41,1.11,0.48c0.27,0.12,0.58,0.17,0.88,0.24
		l-0.12,0.07c-1.55,0.52-3.33,0.57-5.06,0.5c-0.51-0.02-1-0.18-1.51-0.16c0.09,0.1,0.25,0.19,0.41,0.24
		c-0.13,0.08-0.29,0.12-0.46,0.14c-0.21,0.05-0.44,0.07-0.65,0.17c-0.27-0.02-0.51,0.08-0.73,0.17c-0.29,0.31-0.63,0.63-0.97,0.79
		l0.07,0.17c0.32-0.14,0.73-0.04,1.05-0.17c0.56-0.05,0.88-0.67,1.32-0.92c0.48-0.38,1.16-0.29,1.74-0.21
		c0.34,0.08-0.04,0.22,0.07,0.44c0.14,0.12,0.25,0.26,0.44,0.21l0.12-0.09c0.1-0.13,0.08-0.29,0.02-0.43
		c0.24-0.15,0.56,0.02,0.82-0.08c0.65-0.02,1.29-0.16,1.92-0.17c0.1-0.02,0.22-0.12,0.32-0.02c-0.05,0.14-0.22,0.15-0.15,0.34
		c0.03,0.15,0.2,0.22,0.34,0.25c0.17-0.07,0.32-0.19,0.25-0.41c-0.03-0.12-0.17-0.14-0.25-0.19c0.36-0.17,0.76-0.22,1.12-0.39
		c0.26-0.05,0.49-0.13,0.71-0.24c0.22-0.02,0.41-0.22,0.61-0.14c-0.08,0.29-0.2,0.57-0.35,0.82c-0.27,0.91-0.48,2.1,0,2.97l0.1-0.03
		c-0.36-0.9-0.15-1.95,0.16-2.8c0.24-1.45,1.73-1.88,2.8-2.43l0.05,0.07c-0.29,0.75-0.71,1.47-0.65,2.38c0.03,0.16-0.07,0.31,0,0.41
		c0.29-0.15,0.48-0.5,0.63-0.79c0.12-0.76-0.32-1.72,0.46-2.29c1.39-0.55,2.7-1.26,4.31-1.28c0.05,0.05,0.17-0.03,0.19,0.07
		c-0.34,0.37-0.83,0.73-0.98,1.19c-0.55,0.75-0.53,2.04-0.29,2.96c0.15,0.53-0.31,0.82-0.53,1.23c-0.1,0.14-0.14,0.39-0.23,0.56
		l0.33,0.03c0.29-0.3,0.56-0.68,0.58-1.13c0.03,0.17,0.19,0.31,0.32,0.34c0.12-0.19-0.1-0.33-0.12-0.51
		c0.27-0.16,0.39,0.19,0.62,0.26c0.35,0.09,0.66,0.24,1.03,0.24l0.12-0.12c-0.37-0.59-1.12-0.69-1.77-0.72
		c-0.34-0.56-0.34-1.26-0.3-1.95c0.07-0.36,0.14-0.73,0.34-1.06c0.09-0.24,0.32-0.46,0.48-0.65c0.31-0.29,0.7-0.49,1.07-0.58h0.05
		l0.02,0.05c-0.46,0.36-0.51,0.86-0.78,1.3c-0.29,0.43-0.42,1.01-0.15,1.49c0.1,0.22,0.05,0.56,0.29,0.71
		c0.22-0.31,0.24-0.7,0.36-1.04c-0.05-0.57-0.39-1.09-0.07-1.64c0.17-0.43,0.53-0.6,0.92-0.75c0.93-0.09,1.75,0.39,2.57,0.75
		c0.17,0.12,0.46,0.22,0.49,0.46c-0.02,0.46-0.27,0.93-0.63,1.15c-0.46,0.28-1.12,0.31-1.54-0.02c-0.26-0.26-0.36-0.7-0.27-1.04
		c0.19-0.2,0.44-0.38,0.75-0.28c0.17,0.09,0.32,0.26,0.54,0.16l0.07-0.27c-0.19-0.1-0.25-0.36-0.51-0.39
		c-0.32-0.05-0.71-0.03-0.93,0.19c-0.36,0.31-0.49,0.77-0.39,1.2c0.12,0.55,0.53,0.94,1.05,1.09c0.78,0.19,1.6-0.05,2.09-0.72
		c0.2-0.22,0.26-0.46,0.37-0.73c0.82,0.5,1.43,1.37,1.75,2.26c0,0.29,0.09,0.6,0.02,0.85l0.59,0.05c-0.05-0.14,0-0.29,0.05-0.41
		c0.22-1.13,0.92-2.07,1.75-2.81c0.29-0.17,0.22,0.23,0.29,0.35c0.25,0.65,0.85,1.11,1.48,1.3c0.71,0.12,1.39-0.05,1.83-0.6
		c0.22-0.41,0.49-1.01,0.12-1.43c-0.24-0.29-0.56-0.44-0.93-0.44c-0.44,0-0.71,0.3-0.93,0.63c0,0.13-0.02,0.29,0.1,0.36
		c0.07,0,0.21,0.02,0.25-0.09c0.03-0.25,0.26-0.38,0.46-0.51c0.18-0.1,0.39,0,0.54,0.11c0.19,0.15,0.22,0.41,0.24,0.67
		c-0.04,0.32-0.26,0.66-0.56,0.8c-0.5,0.25-1.21,0.14-1.63-0.16c-0.2-0.22-0.32-0.48-0.47-0.75c-0.04-0.27-0.14-0.51,0-0.79
		c0.75-0.44,1.53-0.77,2.43-0.85c0.36,0.07,0.66,0.31,0.9,0.56c0.78,0.81-0.17,1.95,0.37,2.84c0.2-0.04,0.2-0.31,0.29-0.48
		c0.26-0.62-0.07-1.28-0.22-1.88c-0.21-0.38-0.32-0.7-0.64-1.01l0.2-0.03c0.36,0.24,0.75,0.51,1.04,0.89
		c0.49,0.8,0.75,1.76,0.66,2.81c-0.13,0.51-0.68,0.75-1.1,0.94c-0.17,0.14-0.38,0.34-0.46,0.55c0.2,0.12,0.49,0,0.7-0.09
		c0.32-0.12,0.51-0.53,0.73-0.72l0.03,0.1c0.02,0.19-0.08,0.45,0.08,0.5c0.09-0.24,0.1-0.58,0.15-0.87
		c0.22,0.24,0.25,0.55,0.32,0.86c0.15,0.31,0.41,0.72,0.82,0.77c0.1-0.15-0.02-0.31-0.05-0.44c-0.05-0.43-0.41-0.65-0.65-0.96
		c-0.59-0.82-0.32-2.1-0.78-3.03c-0.17-0.49-0.53-0.85-0.92-1.26l0.07-0.07c0.83-0.02,1.53,0.25,2.29,0.41
		c0.93,0.46,2.29,0.36,2.73,1.57c0.19,0.69,0.49,1.32,0.97,1.85l0.05-0.04c0.1-0.17,0.1-0.46,0-0.63c-0.1-0.85-0.85-1.06-1.24-1.78
		l0.05-0.07c0.41,0.12,0.83,0.22,1.24,0.39c1.36,0.38,2.31,1.71,2.48,3.1c0,1.09-0.2,2-0.63,2.92c-0.05,0.14-0.29,0.29-0.14,0.41
		c0.19-0.14,0.22-0.36,0.32-0.52c0.56-0.94,0.85-2.24,0.56-3.44c-0.02-0.22-0.27-0.39-0.15-0.61c0.09,0.1,0.19,0.12,0.29,0.16
		c0.1-0.07,0.26-0.07,0.33-0.19c0.01-0.1,0.08-0.22,0-0.31c-0.11-0.15-0.33-0.15-0.49-0.12c-0.09,0.1-0.19,0.24-0.2,0.37
		c-0.17-0.29-0.34-0.67-0.61-0.9l0.03-0.05c0.76,0.26,1.46,0.63,2.24,0.84c0.17,0.1,0.36,0.19,0.59,0.19
		c0.66,0.25,1.39,0.36,2.09,0.53c0.51-0.05,0.94,0.19,1.45,0.07V32.7l-0.02,0.02c-0.19-0.24-0.59-0.02-0.82-0.19
		c-1.17-0.12-2.29-0.42-3.35-0.84l0.14-0.03c0.17-0.09,0.29-0.24,0.27-0.43c-0.08-0.12-0.22-0.19-0.39-0.19
		c-0.1,0.05-0.24,0.17-0.25,0.29c0.02,0.14,0.14,0.29,0.25,0.33l-0.15,0.02c-0.53-0.24-1.04-0.46-1.55-0.7
		c-0.19-0.03-0.34-0.19-0.53-0.22c-0.39-0.19-0.78-0.38-1.17-0.53c-1.09-0.57-2.29-0.87-3.45-1.28c-0.26-0.07-0.49-0.14-0.73-0.21
		c-0.43-0.12-0.85-0.22-1.27-0.34c-1.45-0.36-3.38-0.39-4.64,0.39c-0.21-0.07-0.32,0.26-0.42,0.05c0.36-0.94,1.39-1.25,2.33-1.28
		c6.81-0.07,13.2-0.12,19.9-0.22c0.78,0,1.55-0.28,1.95-0.98C75.67,25.95,75.72,25.24,75.5,24.78z M48.5,31.09
		c-0.07,0.21-0.2,0.38-0.19,0.6l-0.07,0.03c0.05-0.25-0.2-0.41-0.14-0.69c-0.14-0.2-0.14-0.46-0.26-0.68
		c-0.15-0.28,0.14-0.4,0.26-0.59c0.24,0.1,0.32,0.33,0.49,0.53C48.7,30.6,48.48,30.82,48.5,31.09z"/>
	<path class="st6" d="M66.92,30.02l0.07,0.15c-0.6,0.53-1.43,0.69-2.28,0.72l-0.22,0.05l-0.03-0.12
		C65.07,30.15,66.01,29.81,66.92,30.02z"/>
	<path class="st6" d="M64.19,30.29c0.07,0.24-0.08,0.38-0.27,0.46c-0.19-0.01-0.29-0.13-0.37-0.28c-0.05-0.13,0.06-0.21,0.12-0.29
		C63.8,30.05,64.12,30.05,64.19,30.29z"/>
	<path class="st6" d="M31.91,30.33c0.03,0.12,0.02,0.27-0.09,0.36l-0.31,0.08c-0.12-0.02-0.19-0.15-0.22-0.26
		c0-0.15,0.09-0.24,0.22-0.32C31.65,30.19,31.8,30.17,31.91,30.33z"/>
	<path class="st6" d="M28.86,31.44v0.12c-0.41,0.08-0.79-0.02-1.1-0.26c-0.24-0.34-0.51-0.68-0.9-0.85c0-0.05-0.1-0.12,0-0.15
		C27.71,30.29,28.22,30.98,28.86,31.44z"/>
	<path class="st6" d="M69.51,30.31c-0.4,0.58-0.73,1.3-1.43,1.56c-0.12,0-0.22,0.17-0.32,0.05c0.27-0.65,0.85-1.36,1.51-1.63
		L69.51,30.31z"/>
	<path class="st6" d="M32.89,30.51c0.02,0.19-0.12,0.23-0.24,0.32c-0.13,0.02-0.2-0.08-0.29-0.19c-0.07-0.17,0.09-0.24,0.17-0.33
		C32.67,30.29,32.82,30.39,32.89,30.51z"/>
	<path class="st6" d="M71.64,30.62c-0.15,0.22-0.08,0.55-0.24,0.78c-0.34,0.4-0.63,0.84-1.17,0.93c-0.09-0.17,0.12-0.35,0.2-0.5
		c0.24-0.51,0.58-1.09,1.12-1.31L71.64,30.62z"/>
	<path class="st6" d="M23.6,30.77c0.05,0.12,0.1,0.24,0,0.38c-0.1,0.08-0.25,0.12-0.39,0.07c-0.15-0.08-0.2-0.27-0.14-0.41
		C23.18,30.65,23.48,30.56,23.6,30.77z"/>
	<path class="st6" d="M22.63,30.98l0.05,0.24c-0.05,0.09-0.13,0.19-0.24,0.2c-0.19,0.04-0.31-0.07-0.39-0.22
		c-0.02-0.16,0.04-0.29,0.17-0.36C22.38,30.77,22.55,30.86,22.63,30.98z"/>
	<path class="st6" d="M24.64,31.08c0.04,0.13,0.07,0.37-0.13,0.41c-0.24,0.1-0.37-0.07-0.51-0.2c0-0.15,0.08-0.28,0.2-0.34
		C24.37,30.93,24.52,30.94,24.64,31.08z"/>
	<path class="st6" d="M27.42,31.3c-0.01,0.12,0.02,0.29-0.12,0.32l-0.32,0.04c-0.03-0.1-0.22-0.19-0.12-0.31
		c0.07-0.08,0.13-0.14,0.24-0.19C27.2,31.21,27.35,31.17,27.42,31.3z"/>
	<path class="st6" d="M73.28,31.42c-0.05,0.12-0.12,0.28-0.26,0.28c-0.15-0.02-0.3-0.03-0.39-0.19c-0.07-0.19,0.09-0.29,0.22-0.34
		C73.02,31.17,73.24,31.23,73.28,31.42z"/>
	<path class="st6" d="M70.17,31.51c0.02,0.14-0.14,0.24-0.21,0.29c-0.24,0.1-0.44-0.07-0.53-0.26c0.03-0.15,0.15-0.26,0.29-0.31
		C69.95,31.21,70.07,31.33,70.17,31.51z"/>
	<path class="st6" d="M72.27,31.48c0,0.12-0.07,0.24-0.15,0.29c-0.14,0.05-0.31,0.04-0.41-0.07c-0.15-0.14-0.03-0.26,0.07-0.36
		C71.93,31.25,72.22,31.27,72.27,31.48z"/>
	<path class="st6" d="M23.16,31.76c0.03,0.19-0.03,0.36-0.2,0.43c-0.15,0-0.32-0.09-0.37-0.24c-0.02-0.15,0.03-0.31,0.17-0.36
		C22.92,31.54,23.06,31.64,23.16,31.76z"/>
	<path class="st6" d="M69.32,31.95c0.05,0.19-0.05,0.36-0.24,0.44c-0.14,0.04-0.22-0.03-0.32-0.12c-0.07-0.08-0.15-0.27-0.02-0.35
		C68.88,31.66,69.22,31.76,69.32,31.95z"/>
	<path class="st6" d="M32.3,32.14c0.07,0.19-0.14,0.22-0.19,0.32l-0.26-0.02c-0.08-0.1-0.19-0.2-0.14-0.36
		c0.09-0.07,0.12-0.14,0.22-0.17C32.13,31.87,32.19,32.04,32.3,32.14z"/>
	<path class="st6" d="M72.97,32.26c0.03,0.12-0.07,0.17-0.09,0.25c-0.1,0.09-0.27,0.1-0.39,0.07c-0.16-0.09-0.16-0.22-0.16-0.38
		c0.1-0.07,0.12-0.15,0.24-0.19C72.73,32.02,72.92,32.09,72.97,32.26z"/>
	<path class="st6" d="M71.92,32.31c0.07,0.2-0.12,0.31-0.25,0.36c-0.07,0.02-0.17-0.03-0.19,0.07c0.44,0.22,0.71,0.58,1.05,0.91
		v0.13c-0.61-0.02-1.24-0.17-1.68-0.65c-0.12-0.08-0.32-0.08-0.46-0.2c0.22-0.22,0.63-0.13,0.94-0.15c0.22-0.24-0.26-0.41,0.03-0.61
		c0.1-0.02,0.17-0.12,0.31-0.09C71.78,32.12,71.85,32.21,71.92,32.31z"/>
	<path class="st6" d="M64.97,32.33l-0.08,0.27c-0.1,0.1-0.26,0.12-0.37,0.07c-0.08-0.12-0.22-0.22-0.17-0.39
		C64.48,32.02,64.92,32.07,64.97,32.33z"/>
	<path class="st6" d="M27,32.92c-0.05,0.16-0.12,0.26-0.29,0.28c-0.14-0.02-0.26-0.07-0.31-0.2c-0.01-0.12,0.07-0.19,0.09-0.28
		C26.68,32.57,27.01,32.67,27,32.92z"/>
	<path class="st6" d="M28.37,32.7c0,0.24-0.26,0.38-0.34,0.62c-0.26,0.56-0.71,1.07-1.36,1.13c-0.07-0.16,0.22-0.34,0.29-0.5
		c0.27-0.58,0.81-0.89,1.31-1.25H28.37z"/>
	<path class="st6" d="M64.56,32.94c0.02,0.18-0.15,0.33-0.29,0.39c-0.15,0.05-0.27-0.07-0.35-0.14c-0.14-0.14-0.05-0.28,0.02-0.41
		C64.14,32.59,64.43,32.75,64.56,32.94z"/>
	<path class="st6" d="M65.62,33.06c-0.02,0.19-0.14,0.33-0.31,0.38l-0.17-0.04c-0.12-0.07-0.22-0.17-0.22-0.31
		c0.08-0.09,0.12-0.22,0.24-0.24C65.31,32.84,65.56,32.86,65.62,33.06z"/>
	<path class="st6" d="M31,33.05c0.02,0.19-0.12,0.29-0.25,0.36c-0.15,0.02-0.25-0.08-0.32-0.21c-0.03-0.15,0.12-0.26,0.2-0.34
		C30.84,32.79,30.88,32.94,31,33.05z"/>
	<path class="st6" d="M32.18,33.11c-0.05,0.16-0.15,0.26-0.32,0.29c-0.12-0.03-0.25-0.07-0.3-0.21c-0.02-0.17,0.12-0.26,0.23-0.34
		C31.96,32.86,32.14,32.92,32.18,33.11z"/>
	<path class="st6" d="M69.27,34.31c0.08,0.07,0.24,0.16,0.2,0.28c-0.27,0.12-0.49-0.19-0.75-0.24c-0.41-0.41-0.71-0.86-0.88-1.37
		c0.15-0.16,0.32,0.03,0.46,0.08C68.69,33.39,69.06,33.81,69.27,34.31z"/>
	<path class="st6" d="M69.9,33.11c0.05,0.12,0.03,0.26-0.03,0.38c-0.1,0.17-0.32,0.14-0.48,0.1c-0.08-0.1-0.24-0.24-0.14-0.39
		c0.05-0.14,0.2-0.17,0.33-0.22C69.69,32.96,69.78,33.06,69.9,33.11z"/>
	<path class="st6" d="M33.74,33.56c0.02,0.14,0.05,0.34-0.12,0.43c-0.15,0.03-0.36-0.02-0.41-0.21c-0.08-0.21,0.1-0.24,0.2-0.34
		C33.55,33.4,33.64,33.47,33.74,33.56z"/>
	<path class="st6" d="M65.56,34.67c0.24,0.34,0.41,0.77,0.44,1.21c-0.05,0.12,0.08,0.24-0.02,0.32h-0.07
		c-0.77-0.54-0.93-1.32-1.22-2.09l-0.07-0.17c0.17-0.15,0.29,0.15,0.46,0.21L65.56,34.67z"/>
	<path class="st6" d="M35.95,34.09l0.02,0.03c-0.68,0.48-1.63,0.77-2.41,0.31l0.09-0.16c0.49-0.16,0.97-0.39,1.5-0.33L35.95,34.09z"
		/>
	<path class="st6" d="M32.08,34.18c-0.58,0.36-1.1,1.06-1.82,1.23c-0.14,0.05-0.22,0.24-0.39,0.14c0.31-0.93,1.31-1.42,2.21-1.51
		V34.18z"/>
	<path class="st6" d="M64.56,34.94c0.05,0.14,0,0.33-0.14,0.36h-0.32c-0.15-0.07-0.15-0.22-0.15-0.34c0.05-0.12,0.17-0.13,0.25-0.19
		C64.36,34.81,64.48,34.81,64.56,34.94z"/>
	<path class="st6" d="M63.15,35.03c-0.1,0.24-0.39,0.38-0.61,0.45c-0.58,0.21-1.1-0.07-1.61-0.2c0.02-0.14,0.19-0.09,0.27-0.17
		c0.56-0.12,1.14-0.24,1.73-0.08L63.15,35.03z"/>
	<path class="st6" d="M32.08,35.52c-0.05,0.07-0.07,0.22-0.21,0.28c-0.12,0.05-0.24,0-0.34-0.07c-0.03-0.1-0.15-0.19-0.07-0.31
		c0.04-0.12,0.17-0.15,0.27-0.19C31.91,35.25,32.04,35.36,32.08,35.52z"/>
	<path class="st6" d="M33.08,35.68c-0.05,0.1-0.1,0.26-0.24,0.33c-0.14,0.04-0.24-0.04-0.34-0.12c-0.05-0.1-0.1-0.22-0.05-0.34
		l0.24-0.16C32.86,35.37,33.01,35.54,33.08,35.68z"/>
	<path class="st6" d="M64.24,35.85c0.02,0.14-0.05,0.22-0.12,0.33c-0.08,0.12-0.25,0.14-0.37,0.07c-0.12-0.02-0.15-0.15-0.2-0.24
		c-0.1-0.14,0.06-0.22,0.12-0.34C63.85,35.51,64.16,35.6,64.24,35.85z"/>
	<path class="st6" d="M64.99,35.82l0.03,0.24c-0.1,0.09-0.17,0.3-0.37,0.22c-0.1,0.03-0.15-0.1-0.21-0.14
		c-0.07-0.17-0.01-0.43,0.21-0.46C64.8,35.63,64.9,35.76,64.99,35.82z"/>
	<path class="st6" d="M32.47,36.31c0.03,0.19-0.03,0.35-0.17,0.46c-0.19,0.04-0.42,0.04-0.49-0.19c-0.02-0.17,0-0.39,0.2-0.5
		C32.18,36.07,32.38,36.11,32.47,36.31z"/>
	<path class="st6" d="M33.43,36.24c-0.03,0.48-0.14,1.06-0.61,1.34c-0.27,0.05-0.54,0.31-0.82,0.14v-0.09
		C32.36,37.12,33.01,36.73,33.43,36.24z"/>
	<path class="st6" d="M61.57,36.64c0.07,0.1-0.05,0.19-0.1,0.27c-0.1,0.12-0.29,0.07-0.41,0.02c-0.12-0.06-0.14-0.22-0.09-0.34
		c0.04-0.1,0.14-0.15,0.22-0.18C61.35,36.38,61.49,36.52,61.57,36.64z"/>
	<path class="st6" d="M35.13,37.42c0.24,0.4,0.1,0.92,0.24,1.35c-0.29,0.03-0.41-0.29-0.59-0.46c-0.37-0.51-0.32-1.2-0.49-1.8
		l0.12-0.03c0.26,0.17,0.44,0.49,0.65,0.71C35.01,37.32,35.15,37.32,35.13,37.42z"/>
	<path class="st6" d="M62.42,36.77c0,0.14-0.15,0.17-0.24,0.26c-0.12-0.02-0.22-0.07-0.32-0.16c-0.05-0.17,0.08-0.22,0.17-0.3
		C62.2,36.5,62.37,36.59,62.42,36.77z"/>
	<path class="st6" d="M64.44,38.3l-0.1,0.12h-0.07c-0.49-0.45-0.98-0.94-0.91-1.63l0.1-0.02C63.92,37.17,64.43,37.6,64.44,38.3z"/>
	<path class="st6" d="M63.17,37.75c0.02,0.14-0.07,0.24-0.15,0.32c-0.19,0.05-0.48,0.04-0.51-0.22c-0.02-0.17,0.17-0.26,0.25-0.34
		C62.97,37.46,63.1,37.6,63.17,37.75z"/>
	<path class="st6" d="M62.05,38.11c-0.24,0.63-0.88,0.96-1.33,1.44l-0.03-0.25c0.17-0.65,0.68-1.28,1.31-1.54
		C62.27,37.78,62,37.97,62.05,38.11z"/>
	<path class="st6" d="M63.32,38.62c0,0.15-0.15,0.22-0.23,0.31c-0.14-0.02-0.27-0.05-0.37-0.19c-0.02-0.17,0.12-0.22,0.22-0.31
		C63.1,38.4,63.26,38.48,63.32,38.62z"/>
	<path class="st6" d="M50.69,7.57c0.23,0,0.42,0.19,0.42,0.42c0,0.23-0.19,0.42-0.42,0.42h-5.03c-0.23,0-0.42-0.19-0.42-0.42
		c0-0.23,0.19-0.42,0.42-0.42H50.69z M47.13,8.3c0.49,0,0.02-0.6-0.24-0.6H46.4c-0.49,0-0.03,0.6,0.24,0.6H47.13z M49.19,8.3
		c0.49,0,0.03-0.6-0.24-0.6h-0.5c-0.49,0-0.02,0.6,0.24,0.6H49.19z M50.71,7.7h-0.19c-0.49,0-0.08,0.6,0.19,0.6
		C51.04,8.3,51.06,7.7,50.71,7.7z"/>
	<path class="st6" d="M50.25,13.35l0.96,0.37l0.95-0.37l-0.38,1.42l0.75-0.16l-0.25,0.86l0.25,0.82l-0.66-0.18l0.29,1.53l-0.95-0.37
		l-0.96,0.37l0.39-1.53l-0.77,0.21l0.2-0.86l-0.2-0.82l0.73,0.12L50.25,13.35z M51.67,15.9c0.21,0,0.23-0.3,0.23-0.56
		c0-0.58-0.46,0-0.7-0.55c-0.17,0.46-0.65,0.04-0.65,0.53c0,0.34,0,0.57,0.34,0.57H51.67z M50.72,15.37c0,0.23,0.3,0.08,0.52,0.08
		c0.22,0,0.52,0.15,0.52-0.08c0-0.31-0.3-0.21-0.52-0.21C51.02,15.17,50.72,15.06,50.72,15.37z"/>
	<polygon class="st6" points="47.99,15.43 47.99,15.25 47.83,15.22 47.96,15.09 47.88,14.94 48.05,14.96 48.15,14.78 48.24,14.96 
		48.41,14.94 48.33,15.09 48.46,15.22 48.3,15.25 48.3,15.43 48.15,15.32 	"/>
	<polygon class="st6" points="47.25,16.39 47.25,16.21 47.09,16.18 47.21,16.05 47.13,15.91 47.3,15.93 47.4,15.75 47.5,15.92 
		47.66,15.91 47.59,16.05 47.71,16.18 47.55,16.21 47.55,16.39 47.4,16.28 	"/>
	<polygon class="st6" points="48.52,16.27 48.52,16.09 48.35,16.06 48.48,15.93 48.4,15.78 48.57,15.8 48.67,15.63 48.76,15.8 
		48.93,15.78 48.85,15.93 48.98,16.06 48.82,16.09 48.82,16.27 48.67,16.15 	"/>
	<polygon class="st6" points="48.66,16.99 48.66,16.89 48.57,16.87 48.64,16.8 48.6,16.72 48.69,16.73 48.75,16.63 48.8,16.72 
		48.9,16.72 48.86,16.8 48.93,16.87 48.84,16.89 48.84,16.99 48.75,16.92 	"/>
	<polygon class="st6" points="47.49,17.81 47.49,17.5 47.21,17.45 47.43,17.22 47.29,16.98 47.58,17 47.75,16.71 47.92,17 
		48.2,16.98 48.07,17.22 48.28,17.45 48.01,17.5 48.01,17.81 47.75,17.61 	"/>
	<polygon class="st6" points="48.09,1.68 48.68,3.15 50.2,2.7 49.43,4.09 50.72,5 49.16,5.26 49.26,6.85 48.09,5.78 46.91,6.85 
		47.01,5.26 45.45,5 46.74,4.09 45.97,2.7 47.49,3.15 	"/>
	<path class="st6" d="M42.6,34.66c-0.18,0.06-0.25,0.12-0.2,0.3l0.21,0.9c0.04,0.17,0.05,0.43-0.06,0.59
		c-0.14,0.19-0.41,0.32-0.62,0.37c-0.15,0.03-0.47,0.09-0.73-0.01c-0.17-0.08-0.28-0.15-0.35-0.46l-0.22-0.94
		c-0.06-0.24-0.14-0.22-0.34-0.2l-0.02-0.07l1.14-0.27l0.02,0.07c-0.22,0.06-0.32,0.09-0.26,0.34l0.22,0.95
		c0.04,0.16,0.13,0.55,0.61,0.43c0.59-0.14,0.5-0.58,0.46-0.76l-0.2-0.86c-0.04-0.17-0.1-0.26-0.4-0.2l-0.02-0.07l0.74-0.18
		L42.6,34.66z"/>
	<path class="st6" d="M44.29,34.85c-0.1-0.19-0.38-0.47-0.78-0.38c-0.18,0.04-0.34,0.17-0.3,0.35c0.03,0.15,0.11,0.2,0.42,0.26
		l0.54,0.1c0.13,0.02,0.42,0.13,0.49,0.44c0.06,0.25-0.09,0.64-0.71,0.78c-0.32,0.07-0.49,0.01-0.59,0.03l-0.08,0.12l-0.1,0.02
		l-0.16-0.7l0.1-0.02c0.13,0.28,0.4,0.55,0.83,0.46c0.41-0.09,0.36-0.38,0.35-0.42c-0.04-0.19-0.21-0.22-0.45-0.26l-0.24-0.04
		c-0.63-0.1-0.68-0.35-0.71-0.48c-0.04-0.17-0.02-0.58,0.62-0.72c0.27-0.06,0.45,0,0.55-0.02l0.09-0.12l0.1-0.02l0.14,0.61
		L44.29,34.85z"/>
	<path class="st6" d="M46.54,35.97l-1.23,0.12l-0.01-0.07c0.25-0.04,0.33-0.06,0.31-0.3l-0.14-1.53c-0.24,0.04-0.59,0.09-0.62,0.55
		l-0.1,0.01l-0.05-0.58l2.07-0.2l0.06,0.58l-0.1,0.01c-0.11-0.46-0.47-0.44-0.71-0.43l0.14,1.53c0.02,0.25,0.11,0.24,0.36,0.23
		L46.54,35.97z"/>
	<path class="st6" d="M49.42,35.97l-0.71-0.01l-0.7-0.93l-0.09,0L47.9,35.6c-0.01,0.23,0.07,0.24,0.3,0.27l0,0.07l-1.17-0.02v-0.07
		c0.24-0.02,0.31-0.03,0.31-0.26l0.03-1.29c0-0.25-0.1-0.26-0.3-0.27l0-0.08l1.11,0.02c0.24,0,0.98,0.04,0.97,0.53
		c-0.01,0.36-0.37,0.44-0.56,0.48l0.68,0.84l0.14,0.06V35.97z M47.92,34.94c0.45,0.01,0.63-0.05,0.64-0.43
		c0-0.29-0.13-0.42-0.41-0.43c-0.19,0-0.2,0.03-0.22,0.12L47.92,34.94z"/>
	<path class="st6" d="M51.69,36.26l-1.11-0.14l0.01-0.07c0.21,0.01,0.27,0.02,0.29-0.08c0.01-0.08-0.07-0.31-0.11-0.4l-0.77-0.1
		c-0.12,0.19-0.19,0.31-0.2,0.35c-0.01,0.11,0.15,0.14,0.27,0.16l-0.01,0.07l-0.7-0.09l0.01-0.07c0.19,0,0.25-0.09,0.38-0.29
		l0.96-1.48l0.1,0.01l0.58,1.61c0.12,0.32,0.16,0.43,0.33,0.45L51.69,36.26z M50.73,35.45l-0.26-0.74l-0.41,0.66L50.73,35.45z"/>
	<path class="st6" d="M53.71,36.67l-1.97-0.36l0.01-0.08c0.19,0.02,0.3,0.03,0.33-0.15l0.25-1.38c0.04-0.19-0.1-0.22-0.26-0.26
		l0.01-0.07l1.19,0.22l-0.02,0.07c-0.24-0.04-0.35-0.05-0.39,0.2l-0.24,1.35c-0.02,0.14,0.04,0.18,0.27,0.22
		c0.51,0.09,0.75-0.11,0.96-0.41l0.1,0.02L53.71,36.67z"/>
	<path class="st6" d="M55.01,36.96l-1.18-0.25l0.02-0.07c0.18,0.02,0.32,0.04,0.36-0.14l0.28-1.38c0.04-0.19-0.12-0.23-0.27-0.27
		l0.01-0.07l1.19,0.25l-0.02,0.07c-0.16-0.03-0.32-0.06-0.36,0.13l-0.29,1.38c-0.03,0.18,0.1,0.22,0.28,0.27L55.01,36.96z"/>
	<path class="st6" d="M57.42,37.27l-1.12-0.12l0.01-0.07c0.21,0.01,0.28,0.01,0.29-0.08c0.01-0.08-0.08-0.3-0.12-0.4l-0.77-0.08
		c-0.12,0.2-0.19,0.31-0.19,0.35c-0.01,0.11,0.15,0.14,0.27,0.16l-0.01,0.07l-0.7-0.07l0.01-0.07c0.19,0,0.25-0.1,0.37-0.3
		l0.93-1.51l0.09,0.01l0.61,1.6c0.13,0.33,0.17,0.43,0.34,0.44L57.42,37.27z M56.44,36.48l-0.28-0.74l-0.4,0.67L56.44,36.48z"/>
	<path class="st6" d="M48.56,13.82c0-0.7-0.39-0.04-0.6-0.64c-0.16,0.5-0.63,0.08-0.63,0.62c0,0.21,0.05,0.33,0.15,0.39v0.21
		l0.1,0.09h0.74l0.1-0.09v-0.23C48.5,14.1,48.56,13.98,48.56,13.82z M47.96,13.95c-0.2,0-0.48,0.14-0.48-0.1
		c0-0.34,0.23-0.27,0.44-0.27c0.2,0,0.52-0.08,0.52,0.27C48.44,14.09,48.16,13.95,47.96,13.95z"/>
	<path class="st6" d="M54.64,22.39c0.18,0,0.32-0.13,0.32-0.28c0-0.16-0.14-0.29-0.32-0.29c-0.17,0-0.32,0.13-0.32,0.29
		C54.32,22.26,54.46,22.39,54.64,22.39z"/>
	<path class="st6" d="M53.13,12.04l-0.15,0.3c0,0.09,0.07,0.17,0.15,0.17c0.09,0,0.16-0.08,0.16-0.17L53.13,12.04z"/>
	<path class="st6" d="M42.88,12.04l-0.15,0.3c0,0.09,0.07,0.17,0.15,0.17c0.08,0,0.15-0.08,0.15-0.17L42.88,12.04z"/>
	<path class="st6" d="M45.44,12.04l-0.15,0.3c0,0.09,0.07,0.17,0.15,0.17c0.08,0,0.15-0.08,0.15-0.17L45.44,12.04z"/>
	<path class="st6" d="M48.01,12.04l-0.15,0.3c0,0.09,0.07,0.17,0.15,0.17c0.08,0,0.15-0.08,0.15-0.17L48.01,12.04z"/>
	<path class="st6" d="M50.57,12.04l-0.15,0.3c0,0.09,0.07,0.17,0.15,0.17c0.08,0,0.15-0.08,0.15-0.17L50.57,12.04z"/>
	<path class="st6" d="M42.88,15.56l0.15,0.3c0,0.09-0.07,0.17-0.15,0.17c-0.08,0-0.15-0.08-0.15-0.17L42.88,15.56z"/>
	<polygon class="st6" points="42.88,18.98 43.03,19.28 42.88,19.45 42.73,19.28 	"/>
	<path class="st6" d="M43.29,21.69l0.15,0.3c0,0.09-0.07,0.17-0.15,0.17c-0.08,0-0.15-0.07-0.15-0.17L43.29,21.69z"/>
	<path class="st6" d="M45.44,23.13l0.15,0.3c0,0.09-0.07,0.17-0.15,0.17c-0.08,0-0.15-0.08-0.15-0.17L45.44,23.13z"/>
	<path class="st6" d="M53.26,15.56l-0.15,0.3c0,0.09,0.07,0.17,0.15,0.17c0.09,0,0.15-0.08,0.15-0.17L53.26,15.56z"/>
	<polygon class="st6" points="53.26,18.98 53.11,19.28 53.26,19.45 53.42,19.28 	"/>
	<path class="st6" d="M52.85,21.69l-0.15,0.3c0,0.09,0.07,0.17,0.15,0.17c0.08,0,0.15-0.07,0.15-0.17L52.85,21.69z"/>
	<path class="st6" d="M50.7,23.13l-0.15,0.3c0,0.09,0.07,0.17,0.15,0.17c0.08,0,0.15-0.08,0.15-0.17L50.7,23.13z"/>
	<path class="st6" d="M48.09,24.66l-0.15,0.3c0,0.09,0.06,0.17,0.15,0.17c0.08,0,0.15-0.07,0.15-0.17L48.09,24.66z"/>
	<path class="st6" d="M52.26,19.55c0.03,0.05,0.11,0.07,0.22,0.03l0.1-0.28l-0.18-0.11c-0.27,0.07-0.57,0.1-0.72,0.36
		c0,0.18,0.13,0.34,0.26,0.42c0.1-0.03,0.11,0.07,0.18,0.11l-0.11,0.15c-0.19-0.2-0.53,0.06-0.68-0.18
		c0.06-0.25,0.19-0.52-0.02-0.75l0.05-0.14c-0.08-0.23-0.32-0.05-0.47-0.05c-0.24-0.03-0.44,0.1-0.58,0.3l0.13,0.24l0.11,0.06
		l-0.16,0.1L50.43,20c-0.11,0.05-0.23-0.12-0.28-0.2c0-0.13,0.02-0.36-0.16-0.39l-0.14,0.04c-0.04,0.05-0.07,0.15-0.07,0.27
		c0,0.12,0.07,0.29,0.07,0.29s0.5,0.37,0.61,0.59c-0.15,0.3-0.15,0.7-0.48,0.86c-0.1,0.07-0.1,0.16-0.1,0.26l0.08,0.06
		c0.21-0.11,0.61-0.15,0.58-0.5c0.08-0.15,0.16-0.31,0.3-0.42c0.16-0.03,0.31,0.05,0.37,0.18c-0.05,0.25-0.21,0.41-0.44,0.49
		l-0.02,0.13c0.06,0.11,0.24,0.06,0.34,0.05c0.27-0.18,0.39-0.5,0.63-0.6c0.03,0.17-0.33,0.21-0.1,0.37
		c0.15-0.03,0.34,0.02,0.44-0.18c-0.11-0.28,0.39-0.41,0.08-0.65c0-0.24,0.26-0.34,0.24-0.6c-0.09-0.26-0.4-0.26-0.48-0.51
		C52.02,19.49,52.16,19.51,52.26,19.55z"/>
	<path class="st6" d="M40.47,22.51c0.18,0,0.32-0.13,0.32-0.28c0-0.15-0.14-0.28-0.32-0.28c-0.18,0-0.32,0.13-0.32,0.28
		C40.15,22.39,40.3,22.51,40.47,22.51z"/>
	<path class="st6" d="M23.84,32.23c0.17,0,0.32-0.13,0.32-0.3c0-0.17-0.14-0.3-0.32-0.3c-0.17,0-0.32,0.13-0.32,0.3
		C23.53,32.09,23.67,32.23,23.84,32.23z"/>
	<path class="st6" d="M34.43,34.59H34.4l-0.02-0.03v0.02l0,0.01v0h-0.03v0l0.01-0.01v-0.04l-0.01-0.01v-0.01h0.03l0.03,0.01
		l-0.02,0.02L34.43,34.59L34.43,34.59L34.43,34.59z M34.38,34.56l0.02-0.01l-0.01-0.01h0V34.56z"/>
	<polygon class="st6" points="34.47,34.55 34.45,34.53 34.44,34.54 34.45,34.55 34.46,34.56 34.47,34.57 34.45,34.59 34.43,34.59 
		34.43,34.59 34.43,34.59 34.43,34.57 34.43,34.57 34.45,34.59 34.46,34.58 34.45,34.57 34.45,34.56 34.43,34.54 34.45,34.53 
		34.47,34.53 34.47,34.53 34.47,34.53 34.47,34.55 	"/>
	<polygon class="st6" points="34.58,34.53 34.57,34.53 34.55,34.59 34.55,34.59 34.53,34.55 34.51,34.59 34.51,34.59 34.49,34.53 
		34.48,34.53 34.48,34.53 34.51,34.53 34.51,34.53 34.5,34.53 34.5,34.54 34.52,34.57 34.53,34.54 34.52,34.53 34.52,34.53 
		34.52,34.53 34.55,34.53 34.55,34.53 34.54,34.53 34.54,34.54 34.55,34.57 34.57,34.54 34.57,34.53 34.56,34.53 34.56,34.53 
		34.58,34.53 	"/>
	<path class="st6" d="M34.58,34.59l0.03-0.02l0,0h0l-0.02-0.02l0.02-0.02l0.02,0.03L34.58,34.59L34.58,34.59z M34.6,34.56
		L34.6,34.56l0.01-0.01l-0.01-0.02l-0.01,0.01L34.6,34.56z"/>
	<polygon class="st6" points="34.64,34.55 34.66,34.55 34.67,34.57 34.64,34.59 34.63,34.58 34.63,34.57 34.65,34.58 34.66,34.57 
		34.65,34.56 34.63,34.56 34.64,34.53 34.67,34.53 34.67,34.54 34.64,34.54 	"/>
	<path class="st6" d="M53.99,11.64L53.99,11.64l-11.83-0.01v0.01h0l0.01,9.04c0,0.92,0.39,1.73,0.93,1.98l4.55,2.89
		c0.1,0.11,0.25,0.19,0.42,0.19c0.14,0,0.27-0.06,0.37-0.14l4.62-2.93c0.54-0.25,0.93-1.05,0.93-1.98L53.99,11.64z M53.65,20.8
		c-0.06,0.69-0.29,1.26-0.77,1.58l-4.46,2.84H48.4c-0.09,0.07-0.21,0.12-0.34,0.12c-0.13,0-0.25-0.05-0.35-0.13l-4.45-2.83
		c-0.47-0.33-0.71-0.89-0.77-1.58v-8.84h11.17V20.8z"/>
	<path class="st6" d="M49.66,24.82l0.14-0.07L49.66,24.82z"/>
	<path class="st6" d="M40.73,37.18l-1.12,0.13l-0.01-0.07c0.21-0.04,0.27-0.05,0.27-0.14l-0.21-0.37l-0.77,0.09
		c-0.07,0.22-0.11,0.35-0.11,0.39c0.01,0.12,0.18,0.1,0.3,0.1l0.01,0.07l-0.7,0.08l-0.01-0.07c0.18-0.05,0.22-0.15,0.3-0.38
		l0.58-1.67l0.1-0.01l0.95,1.43c0.19,0.29,0.25,0.38,0.42,0.36L40.73,37.18z M39.61,36.62l-0.43-0.66l-0.24,0.74L39.61,36.62z"/>
	<path class="st6" d="M60.34,32.94c-0.2-0.53-0.63-0.89-1.16-1.06c-0.54-0.12-1.12-0.03-1.48,0.38c-0.61,0.49-0.19,1.32-0.17,1.98
		c0,0.14,0.02,0.24-0.12,0.31c-2.46-0.22-4.76-0.84-7.2-1.09c-0.56-0.1-1.13-0.07-1.66-0.18l-0.68-0.07
		c-2.12,0.07-4.25,0.19-6.23,0.7c-0.43,0.14-0.9,0.17-1.33,0.33c-0.3-0.05-0.56,0.17-0.85,0.08l-0.56,0.13l-0.19-0.01
		c-0.27-0.71,0.54-1.13,0.29-1.82c-0.22-0.39-0.66-0.77-1.17-0.7c-0.58-0.07-1.09,0.25-1.36,0.7c-0.39,0.86,0.1,1.75,0.25,2.58
		c-0.03,0.27,0.27,0.58,0,0.81c-0.54-0.38-1.25-0.58-1.92-0.39c-0.2,0.1-0.58-0.04-0.68,0.2c0.73,0.39,1.66,0.34,2.48,0.31
		c0.1-0.03,0.17-0.05,0.25,0.02c0.07,0.44-0.09,1.04,0.19,1.44c0.31,0.41,0.82,0.51,1.31,0.56c1.56-0.05,2.96-0.51,4.38-0.87
		c0.22-0.01,0.39-0.13,0.63-0.13c0.76-0.17,1.6-0.31,2.41-0.32c-0.36,0.46-0.56,0.97-0.72,1.54c-0.2,0.46,0.36,0.53,0.53,0.79
		c-0.53,0.16-0.9,0.51-1.39,0.72c-1.09-0.03-2,0.38-3.02,0.5c-0.02,0.22,0.36,0.15,0.39,0.38c-0.05,0.15-0.2,0.17-0.33,0.25
		c-0.02,0.1,0,0.12,0.11,0.14c0.1-0.12,0.32-0.03,0.42-0.15c0.34,0,0.63-0.1,0.95-0.12c0.29-0.12,0.61-0.14,0.87-0.34
		c0.35-0.1,0.58-0.34,0.93-0.45c0.51,0,0.97-0.17,1.44-0.2v0.1c-0.39,0.63-0.8,1.28-1.21,1.88c-0.07,0.12,0.01,0.24,0.12,0.27
		c0.24,0.07,0.48,0,0.66-0.1c0.36-0.62,0.68-1.2,0.97-1.83c0.12-0.58,0.54-0.89,0.97-1.28c0.07-0.04,0.17-0.14,0.24-0.04
		c-0.34,0.39-0.56,0.77-0.82,1.2c-0.14,0.48-0.17,1.1,0.26,1.49c0.2,0.17,0.51,0.12,0.78,0.13c0.66-0.34,1.51,0.21,2.02-0.45
		c0.31-0.05,0.36,0.31,0.53,0.48c0.29,0.08,0.6,0.38,0.88,0.17c-0.02-0.19-0.22-0.36-0.32-0.53c-0.2-0.36-0.46-0.65-0.65-0.98
		c-0.08-0.24-0.24-0.39-0.27-0.63c0.3,0.1,0.58,0.3,0.92,0.36c0.29,0.12,0.65,0.1,0.92,0.27c0.22,0.29,0.56,0.46,0.85,0.65
		c0.42,0.21,0.9,0.24,1.34,0.41c0.17,0.02,0.43,0.15,0.54,0c-0.07-0.08-0.15-0.14-0.25-0.19c-0.05-0.22,0.31-0.1,0.42-0.28
		l-0.2-0.13c-0.24-0.13-0.85-0.17-1.01-0.26c-0.2-0.03-0.39-0.12-0.59-0.19c-1.02,0-1.58-0.92-2.4-1.27
		c0.19-0.17,0.48-0.31,0.59-0.57c0.15-0.24,0.2-0.63,0.05-0.91c-0.15-0.53-0.83-0.46-1.22-0.75l0.05-0.05
		c0.66-0.04,1.24,0.12,1.84,0.24c1.63,0.22,3.14,0.84,4.84,0.87c0.93,0,2.1,0.05,2.56-0.86c0.08-0.53,0.19-1.06,0.27-1.59
		C59.86,34.67,60.42,33.89,60.34,32.94z M41.99,40.74l-0.24-0.22c0.12-0.15,0.37-0.07,0.56-0.17c0.44-0.14,0.95-0.31,1.44-0.2
		C43.25,40.56,42.59,40.61,41.99,40.74z M52.6,40.47c0.41,0.18,1.22,0.36,1.81,0.43c-0.05,0.23-0.47,0.01-0.42,0.34
		c-0.53-0.21-1.14-0.31-1.53-0.72L52.6,40.47z M36.66,33.2c0.05-0.31,0.12-0.63,0.41-0.85c0.41-0.23,0.97-0.17,1.34,0.05
		c0.12,0.07,0.2,0.17,0.27,0.33c0.09,0.29-0.05,0.6-0.25,0.77h-0.17c0-0.27,0-0.55,0.1-0.77c-0.02-0.21-0.18-0.22-0.32-0.31
		c-0.29-0.08-0.54,0.05-0.76,0.17c-0.17,0.21-0.32,0.46-0.22,0.75c0.12,0.19,0.02,0.44,0.08,0.65l-0.05,0.07
		C36.88,33.83,36.61,33.59,36.66,33.2z M37.46,33.69c0.25,0.19,0.61,0.1,0.92,0.15c0.05,0.19,0.05,0.43-0.09,0.58
		c-0.29-0.07-0.66-0.03-0.81-0.3C37.51,34,37.43,33.82,37.46,33.69z M37.41,33.11c0.05-0.13,0-0.34,0.19-0.37
		c0.12-0.04,0.31-0.04,0.32,0.1c-0.02,0.2-0.04,0.41-0.09,0.6C37.59,33.46,37.48,33.32,37.41,33.11z M45.37,38.6
		c-0.09-0.6,0.15-1.11,0.55-1.54c0.24-0.05,0.51-0.1,0.73,0.03c-0.44,0.12-1,0.22-1.11,0.79c0.02,0.22-0.05,0.34,0.05,0.53
		c0.19,0.32,0.61,0.19,0.85,0.44l-0.15,0.21C46,38.9,45.64,38.83,45.37,38.6z M44.76,39.78c0.41-0.17,0.83-0.53,1.29-0.38
		C45.73,39.66,45.2,39.77,44.76,39.78z M46.37,39.96c-0.24,0.55-0.51,1.08-0.83,1.61c-0.03,0.09-0.17,0.1-0.27,0.12
		c0-0.24,0.24-0.43,0.34-0.63c0.36-0.46,0.46-0.96,0.87-1.4C46.58,39.75,46.37,39.82,46.37,39.96z M46.8,38.97v0.06h-0.04v-0.06
		v-0.02h0.07l-0.07,0.02H46.8z M46.65,38.5c-0.29-0.04-0.56-0.12-0.82-0.2c-0.17-0.17,0-0.36,0-0.55c0.24-0.38,0.91-0.57,1.24-0.22
		C47.02,37.9,46.89,38.23,46.65,38.5z M47.02,38.5c0.05-0.22,0.15-0.51,0.27-0.72C47.27,38.01,47.18,38.31,47.02,38.5z M47.21,37.12
		c-0.22-0.05-0.34-0.31-0.58-0.31c0.21-0.07,0.41-0.06,0.64-0.02C47.36,36.91,47.22,37.01,47.21,37.12z M47.41,37.63h-0.01v-0.19
		h0.01V37.63z M47.43,38.42l0.05-0.24l0.2,0.12C47.63,38.38,47.53,38.43,47.43,38.42z M47.68,37.36c0.08-0.24,0.1-0.45,0.26-0.63
		c0.17,0,0.32,0,0.46,0.07c0.03,0.34,0.46,0.8,0,1.09c-0.15,0.07-0.38,0.22-0.54,0.07C47.63,37.77,47.6,37.6,47.68,37.36z
		 M48.92,36.87c-0.04-0.15,0.15-0.03,0.22-0.1l0.52,0.04C49.4,36.77,49.06,37.41,48.92,36.87z M49.77,37.1
		c-0.21,0.07-0.36,0.31-0.56,0.36C49.31,37.27,49.57,37.09,49.77,37.1z M49.06,38.16v0.05h-0.02v-0.05H49.06z M49.09,39.2
		l-0.03,0.12l-0.39-0.31C48.86,38.98,48.99,39.07,49.09,39.2z M48.63,38.67h0.15H48.63z M48.4,38.42c0.07-0.1,0.15-0.26,0.27-0.26
		l0.03,0.05C48.6,38.3,48.52,38.38,48.4,38.42z M48.01,38.38h-0.07l0.1-0.1L48.01,38.38z M48.05,39.03
		c0.22-0.24,0.43,0.14,0.51,0.33c0.25,0.37,0.91,0.72,0.66,1.23c-0.32,0.29-0.83,0.02-1.19,0.24c-0.19-0.01-0.51,0.04-0.61-0.15
		C47.62,40.13,47.79,39.51,48.05,39.03z M47.58,39.36l0.08-0.14c-0.13,0.41-0.34,0.84-0.56,1.23C47,40.04,47.43,39.72,47.58,39.36z
		 M48.33,41.39c-0.32,0.02-0.82,0.2-1.12-0.07c0.02-0.14-0.13-0.21-0.12-0.34c0.27-0.1,0.51,0.23,0.76-0.02
		c0.39,0.02,0.8-0.05,1.19,0.03c0.18,0.05,0.47-0.31,0.51,0.05C49.42,41.62,48.73,41.22,48.33,41.39z M49.31,38.93v-0.05h0.03v0.05
		H49.31z M49.42,40.01c0.02,0.17,0.19,0.24,0.08,0.39C49.46,40.33,49.36,40.18,49.42,40.01z M49.89,41.03l-0.09,0.03
		c-0.09-0.07-0.05-0.25-0.03-0.36C49.87,40.79,49.96,40.91,49.89,41.03z M50.74,41.44l-0.14,0.02c-0.51-0.65-0.75-1.33-1.07-2.05
		l0.07-0.02C50.01,40.06,50.33,40.79,50.74,41.44z M51.37,39.87l-0.03,0.07c-0.49,0.01-0.82-0.28-1.19-0.53l-0.01-0.09
		C50.59,39.36,50.96,39.65,51.37,39.87z M50.93,37.6c0.2,0.05,0.22,0.27,0.24,0.45c-0.02,0.38-0.22,0.7-0.58,0.84
		c-0.19,0.1-0.48,0.14-0.66,0.07c0.41-0.02,0.85-0.17,1.02-0.58L50.93,37.6z M50.55,37.53c0.08,0.24,0.24,0.46,0.15,0.75
		c-0.17,0.32-0.51,0.32-0.81,0.39c-0.15,0.02-0.27-0.04-0.39-0.12l-0.07-0.18c0.05-0.22-0.39-0.44-0.09-0.63
		C49.62,37.49,50.26,36.91,50.55,37.53z M59.18,36.28c-0.14,0.17-0.02,0.45-0.19,0.59c0,0.31-0.26,0.47-0.47,0.59
		c-2.02,0.44-4.01-0.24-5.96-0.59c-2.73-0.59-5.93-0.76-8.72-0.13c-1.31,0.24-2.58,0.54-3.84,0.91c-0.78,0.1-1.63,0.22-2.38-0.02
		c-0.61-0.29-0.36-1.08-0.54-1.62c0.03-0.43-0.12-0.77-0.13-1.18c-0.05-0.14-0.09-0.31-0.07-0.45c0.25,0.04,0.51,0.23,0.78,0.29
		c1.43,0.27,2.7-0.19,4.03-0.43c1.27-0.27,2.58-0.49,3.92-0.6c1.53-0.02,3.09-0.1,4.55,0.15c0.48,0.02,0.89,0.14,1.34,0.17
		c0.95,0.12,1.84,0.38,2.8,0.45c0.15,0.05,0.34,0.05,0.51,0.08c1.53,0.24,3.24,0.66,4.71,0C59.52,35.11,59.26,35.68,59.18,36.28z
		 M58.7,34.19c0.02,0.28-0.24,0.21-0.37,0.31h-0.41c-0.08-0.14-0.05-0.34-0.05-0.48C58.14,34.07,58.45,34.07,58.7,34.19z
		 M58.52,33.76c0.19-0.19-0.05-1.26,0.47-0.56c0,0.14,0.02,0.34-0.12,0.45C58.79,33.71,58.65,33.85,58.52,33.76z M59.89,33.59
		c-0.15,0.31-0.39,0.53-0.73,0.58c0.02-0.41,0.39-0.7,0.25-1.16c-0.22-0.33-0.66-0.43-1.07-0.34c-0.15,0.1-0.08,0.28-0.14,0.43
		l-0.07,0.56c-0.34,0-0.36-0.31-0.46-0.55c0.02-0.36,0.17-0.72,0.53-0.89c0.27-0.14,0.71-0.12,0.99,0.04
		c0.22,0.05,0.47,0.15,0.56,0.36C60.01,32.86,59.94,33.29,59.89,33.59z"/>
	<line class="st7" x1="111.16" y1="1.89" x2="111.16" y2="53.1"/>
	<path class="st8" d="M5.45,50.93H3.03L2.74,51.6C2.65,51.82,2.6,52,2.6,52.14c0,0.19,0.08,0.33,0.23,0.42
		c0.09,0.06,0.31,0.09,0.67,0.12v0.19H1.23v-0.19c0.25-0.04,0.45-0.14,0.61-0.3c0.16-0.17,0.35-0.51,0.59-1.04l2.45-5.48h0.1
		l2.47,5.63c0.24,0.53,0.43,0.87,0.58,1c0.12,0.11,0.28,0.16,0.49,0.18v0.19H5.19v-0.19h0.14c0.27,0,0.45-0.04,0.56-0.11
		C5.96,52.53,6,52.45,6,52.35l-0.03-0.18C5.96,52.13,5.91,52,5.82,51.78L5.45,50.93z M5.28,50.55l-1.02-2.37l-1.05,2.37H5.28z"/>
	<path class="st6" d="M12.71,48.15v3.7c0,0.36,0.03,0.59,0.1,0.68c0.07,0.08,0.21,0.14,0.41,0.17v0.18H11.3v-0.63
		c-0.23,0.27-0.45,0.47-0.68,0.59c-0.22,0.12-0.48,0.18-0.76,0.18c-0.27,0-0.5-0.08-0.71-0.24c-0.21-0.16-0.34-0.36-0.42-0.57
		c-0.07-0.22-0.1-0.6-0.1-1.15v-1.88c0-0.35-0.04-0.58-0.1-0.67c-0.06-0.08-0.2-0.14-0.41-0.17v-0.19h1.93v3.23
		c0,0.34,0.02,0.56,0.04,0.65c0.03,0.1,0.08,0.17,0.15,0.22c0.07,0.05,0.15,0.08,0.24,0.08c0.12,0,0.23-0.03,0.33-0.09
		c0.13-0.09,0.3-0.27,0.48-0.53v-2.53c0-0.35-0.03-0.58-0.1-0.67c-0.06-0.08-0.2-0.14-0.41-0.17v-0.19H12.71z"/>
	<path class="st6" d="M16.54,48.02l0.07,1.61h-0.17c-0.21-0.48-0.42-0.81-0.64-0.98c-0.22-0.18-0.44-0.27-0.66-0.27
		c-0.14,0-0.26,0.05-0.36,0.14c-0.1,0.09-0.14,0.2-0.14,0.32c0,0.09,0.03,0.18,0.1,0.26c0.11,0.14,0.41,0.38,0.91,0.71
		c0.49,0.33,0.82,0.62,0.98,0.86c0.16,0.23,0.24,0.49,0.24,0.78c0,0.26-0.07,0.52-0.2,0.78c-0.13,0.25-0.32,0.45-0.56,0.58
		c-0.24,0.14-0.5,0.2-0.79,0.2c-0.23,0-0.53-0.07-0.91-0.21c-0.1-0.04-0.17-0.06-0.21-0.06c-0.11,0-0.2,0.08-0.28,0.25h-0.17
		l-0.08-1.7h0.17c0.15,0.44,0.36,0.78,0.62,1c0.27,0.22,0.52,0.33,0.75,0.33c0.16,0,0.29-0.05,0.4-0.15c0.1-0.1,0.16-0.22,0.16-0.36
		c0-0.16-0.05-0.3-0.15-0.42c-0.1-0.12-0.33-0.3-0.68-0.54c-0.51-0.36-0.85-0.63-1-0.82c-0.22-0.28-0.33-0.58-0.33-0.92
		c0-0.36,0.13-0.69,0.37-0.99c0.25-0.29,0.62-0.44,1.09-0.44c0.26,0,0.51,0.06,0.75,0.19l0.22,0.08l0.15-0.04
		c0.04-0.03,0.09-0.1,0.18-0.22H16.54z"/>
	<path class="st6" d="M19.04,46.42v1.73h1.13v0.5h-1.13v2.91c0,0.27,0.01,0.45,0.04,0.53l0.13,0.19l0.18,0.07
		c0.22,0,0.43-0.17,0.62-0.5l0.15,0.11c-0.27,0.65-0.72,0.97-1.33,0.97c-0.3,0-0.56-0.08-0.76-0.24c-0.2-0.17-0.34-0.36-0.39-0.56
		c-0.04-0.11-0.05-0.42-0.05-0.93v-2.55H17v-0.18c0.43-0.3,0.79-0.61,1.08-0.95c0.3-0.33,0.56-0.7,0.79-1.11H19.04z"/>
	<path class="st6" d="M22.47,48.15v1.07c0.31-0.49,0.59-0.81,0.83-0.97c0.24-0.16,0.46-0.24,0.68-0.24c0.19,0,0.34,0.06,0.45,0.18
		c0.12,0.11,0.17,0.27,0.17,0.49c0,0.23-0.06,0.4-0.17,0.53c-0.11,0.13-0.24,0.19-0.39,0.19c-0.18,0-0.34-0.06-0.47-0.17
		c-0.13-0.11-0.21-0.18-0.23-0.19l-0.12-0.03c-0.1,0-0.19,0.04-0.28,0.11c-0.14,0.12-0.24,0.28-0.31,0.49
		c-0.11,0.33-0.16,0.69-0.16,1.08v1.09l0.01,0.28c0,0.19,0.01,0.32,0.04,0.37l0.18,0.2c0.08,0.04,0.22,0.07,0.41,0.08v0.18h-2.55
		V52.7c0.2-0.02,0.34-0.07,0.41-0.17c0.07-0.1,0.11-0.35,0.11-0.76v-2.62c0-0.27-0.01-0.45-0.04-0.52
		c-0.03-0.09-0.08-0.17-0.14-0.21c-0.06-0.04-0.18-0.07-0.34-0.09v-0.19H22.47z"/>
	<path class="st8" d="M27.2,52.18c-0.58,0.51-1.1,0.76-1.55,0.76c-0.27,0-0.5-0.08-0.67-0.26c-0.18-0.18-0.27-0.4-0.27-0.66
		c0-0.36,0.16-0.69,0.47-0.97c0.31-0.29,0.98-0.67,2.03-1.15v-0.48c0-0.36-0.02-0.58-0.06-0.67c-0.04-0.09-0.11-0.17-0.22-0.24
		c-0.11-0.07-0.23-0.11-0.36-0.11c-0.22,0-0.4,0.05-0.54,0.14l-0.13,0.21c0,0.07,0.04,0.16,0.14,0.27c0.13,0.14,0.19,0.28,0.19,0.42
		c0,0.16-0.06,0.31-0.19,0.42c-0.12,0.11-0.28,0.17-0.48,0.17c-0.21,0-0.39-0.06-0.54-0.19c-0.14-0.13-0.21-0.27-0.21-0.45
		c0-0.24,0.1-0.48,0.29-0.69c0.19-0.22,0.46-0.39,0.8-0.51c0.34-0.12,0.71-0.18,1.07-0.18c0.45,0,0.8,0.09,1.06,0.29
		c0.26,0.19,0.44,0.39,0.51,0.62c0.05,0.14,0.07,0.47,0.07,0.98v1.83c0,0.22,0.01,0.36,0.03,0.41l0.08,0.12l0.12,0.04
		c0.08,0,0.18-0.06,0.27-0.19l0.15,0.12c-0.17,0.25-0.34,0.43-0.53,0.55c-0.18,0.11-0.38,0.16-0.61,0.16
		c-0.27,0-0.48-0.06-0.63-0.18C27.32,52.63,27.23,52.44,27.2,52.18z M27.2,51.81v-1.58c-0.41,0.24-0.71,0.49-0.91,0.77
		c-0.13,0.18-0.2,0.37-0.2,0.55c0,0.15,0.06,0.29,0.17,0.41c0.08,0.09,0.2,0.14,0.35,0.14C26.78,52.09,26.98,52,27.2,51.81z"/>
	<path class="st6" d="M31.31,46.02v5.88c0,0.33,0.04,0.55,0.12,0.64c0.08,0.09,0.23,0.15,0.46,0.16v0.18h-2.56V52.7
		c0.21,0,0.37-0.07,0.47-0.18c0.07-0.08,0.1-0.28,0.1-0.62V47c0-0.33-0.04-0.54-0.12-0.63c-0.08-0.09-0.23-0.15-0.45-0.16v-0.19
		H31.31z"/>
	<path class="st8" d="M33.47,45.86c0.22,0,0.41,0.08,0.56,0.23c0.15,0.15,0.23,0.33,0.23,0.55c0,0.22-0.08,0.4-0.23,0.55
		c-0.15,0.15-0.33,0.23-0.55,0.23c-0.21,0-0.4-0.08-0.55-0.23c-0.15-0.15-0.23-0.33-0.23-0.55c0-0.22,0.07-0.4,0.23-0.55
		C33.07,45.93,33.26,45.86,33.47,45.86z M34.18,48.15v3.75c0,0.33,0.04,0.55,0.12,0.64c0.08,0.09,0.23,0.15,0.46,0.16v0.18H32.2
		V52.7c0.21,0,0.36-0.07,0.46-0.18c0.07-0.08,0.1-0.28,0.1-0.62v-2.76c0-0.33-0.04-0.55-0.12-0.64c-0.08-0.09-0.23-0.15-0.45-0.16
		v-0.19H34.18z"/>
	<path class="st8" d="M37.51,52.18c-0.58,0.51-1.09,0.76-1.55,0.76c-0.27,0-0.5-0.08-0.67-0.26c-0.18-0.18-0.27-0.4-0.27-0.66
		c0-0.36,0.15-0.69,0.47-0.97c0.31-0.29,0.98-0.67,2.03-1.15v-0.48c0-0.36-0.02-0.58-0.06-0.67c-0.04-0.09-0.11-0.17-0.22-0.24
		c-0.11-0.07-0.23-0.11-0.36-0.11c-0.22,0-0.4,0.05-0.54,0.14l-0.13,0.21c0,0.07,0.05,0.16,0.14,0.27c0.13,0.14,0.19,0.28,0.19,0.42
		c0,0.16-0.06,0.31-0.19,0.42c-0.12,0.11-0.28,0.17-0.48,0.17c-0.21,0-0.39-0.06-0.54-0.19c-0.14-0.13-0.21-0.27-0.21-0.45
		c0-0.24,0.1-0.48,0.29-0.69c0.19-0.22,0.46-0.39,0.8-0.51c0.34-0.12,0.7-0.18,1.07-0.18c0.45,0,0.8,0.09,1.06,0.29
		c0.26,0.19,0.44,0.39,0.51,0.62c0.05,0.14,0.07,0.47,0.07,0.98v1.83c0,0.22,0.01,0.36,0.02,0.41l0.08,0.12l0.12,0.04
		c0.09,0,0.18-0.06,0.27-0.19l0.15,0.12c-0.17,0.25-0.34,0.43-0.52,0.55c-0.18,0.11-0.38,0.16-0.61,0.16
		c-0.27,0-0.48-0.06-0.63-0.18C37.64,52.63,37.55,52.44,37.51,52.18z M37.51,51.81v-1.58C37.1,50.47,36.8,50.72,36.6,51
		c-0.13,0.18-0.2,0.37-0.2,0.55c0,0.15,0.05,0.29,0.17,0.41c0.08,0.09,0.2,0.14,0.35,0.14C37.09,52.09,37.29,52,37.51,51.81z"/>
	<path class="st6" d="M41.6,48.15v0.61c0.24-0.26,0.47-0.45,0.7-0.57c0.22-0.12,0.46-0.18,0.72-0.18c0.31,0,0.56,0.09,0.76,0.26
		c0.2,0.17,0.34,0.38,0.4,0.63c0.06,0.19,0.08,0.56,0.08,1.11v1.84c0,0.36,0.03,0.59,0.09,0.68c0.07,0.08,0.21,0.14,0.42,0.17v0.18
		h-2.39V52.7c0.18-0.02,0.3-0.1,0.38-0.22c0.05-0.08,0.08-0.29,0.08-0.63v-2.1c0-0.39-0.01-0.64-0.05-0.73
		c-0.03-0.1-0.09-0.18-0.16-0.23l-0.24-0.08c-0.29,0-0.56,0.21-0.81,0.62v2.53c0,0.36,0.03,0.58,0.1,0.67
		c0.07,0.1,0.19,0.15,0.37,0.18v0.18h-2.39V52.7c0.2-0.02,0.34-0.08,0.42-0.19c0.06-0.08,0.09-0.29,0.09-0.66v-2.67
		c0-0.35-0.04-0.58-0.1-0.67c-0.06-0.08-0.2-0.14-0.41-0.17v-0.19H41.6z"/>
	<path class="st6" d="M54.09,45.86v2.42h-0.18c-0.23-0.66-0.57-1.16-1.02-1.5c-0.45-0.34-0.94-0.52-1.48-0.52
		c-0.51,0-0.94,0.15-1.28,0.44c-0.34,0.29-0.58,0.69-0.72,1.2c-0.14,0.52-0.21,1.04-0.21,1.59c0,0.66,0.08,1.23,0.23,1.73
		c0.15,0.5,0.4,0.86,0.75,1.09c0.35,0.23,0.76,0.35,1.23,0.35c0.17,0,0.34-0.02,0.51-0.05c0.17-0.04,0.35-0.09,0.53-0.16v-1.43
		c0-0.27-0.02-0.44-0.05-0.52c-0.04-0.08-0.12-0.16-0.23-0.22c-0.12-0.06-0.25-0.1-0.42-0.1h-0.18V50h3.34v0.19
		c-0.25,0.01-0.43,0.05-0.53,0.11c-0.1,0.05-0.18,0.14-0.23,0.26c-0.03,0.06-0.05,0.22-0.05,0.47v1.43
		c-0.44,0.19-0.89,0.34-1.37,0.44c-0.47,0.1-0.96,0.15-1.47,0.15c-0.65,0-1.2-0.09-1.63-0.26c-0.43-0.18-0.81-0.41-1.14-0.7
		c-0.33-0.29-0.58-0.62-0.77-0.98c-0.24-0.46-0.35-0.99-0.35-1.56c0-1.04,0.36-1.9,1.09-2.62c0.72-0.71,1.64-1.07,2.74-1.07
		c0.34,0,0.64,0.03,0.92,0.08c0.15,0.03,0.39,0.1,0.72,0.23c0.33,0.12,0.53,0.19,0.59,0.19c0.09,0,0.18-0.03,0.26-0.1
		c0.08-0.07,0.15-0.2,0.22-0.39H54.09z"/>
	<path class="st8" d="M57.37,48.01c0.41,0,0.8,0.1,1.15,0.32c0.35,0.21,0.62,0.51,0.8,0.9c0.19,0.39,0.28,0.82,0.28,1.28
		c0,0.67-0.17,1.23-0.51,1.69c-0.41,0.54-0.98,0.82-1.7,0.82c-0.71,0-1.26-0.25-1.65-0.75c-0.38-0.5-0.58-1.08-0.58-1.74
		c0-0.68,0.2-1.27,0.59-1.77C56.15,48.26,56.69,48.01,57.37,48.01z M57.39,48.37c-0.17,0-0.32,0.06-0.44,0.2
		c-0.12,0.13-0.2,0.38-0.25,0.77c-0.04,0.38-0.06,0.91-0.06,1.59c0,0.36,0.02,0.7,0.07,1.01c0.04,0.24,0.12,0.42,0.24,0.54
		c0.12,0.13,0.26,0.19,0.41,0.19c0.15,0,0.28-0.04,0.38-0.13c0.13-0.12,0.22-0.28,0.26-0.48c0.07-0.32,0.1-0.97,0.1-1.94
		c0-0.58-0.03-0.97-0.1-1.18c-0.06-0.22-0.16-0.37-0.28-0.47C57.65,48.4,57.54,48.37,57.39,48.37z"/>
	<path class="st6" d="M61.84,53.02l-1.59-3.67c-0.19-0.44-0.34-0.72-0.45-0.84c-0.08-0.09-0.19-0.15-0.34-0.18v-0.19h2.52v0.19
		c-0.16,0-0.27,0.03-0.33,0.09c-0.08,0.08-0.12,0.16-0.12,0.26c0,0.12,0.07,0.36,0.22,0.7l0.78,1.78l0.62-1.53
		c0.18-0.44,0.27-0.75,0.27-0.93c0-0.11-0.04-0.19-0.12-0.25c-0.07-0.07-0.21-0.1-0.4-0.11v-0.19h1.55v0.19
		c-0.15,0.02-0.27,0.08-0.36,0.17c-0.09,0.09-0.24,0.36-0.43,0.81l-1.58,3.71H61.84z"/>
	<path class="st8" d="M68.16,50.35h-2.59c0.03,0.62,0.2,1.12,0.5,1.49c0.24,0.28,0.51,0.42,0.84,0.42c0.2,0,0.39-0.06,0.55-0.17
		c0.17-0.11,0.34-0.32,0.53-0.61l0.17,0.11c-0.26,0.52-0.54,0.89-0.85,1.11c-0.31,0.22-0.67,0.32-1.08,0.32
		c-0.7,0-1.23-0.27-1.59-0.81c-0.29-0.43-0.43-0.98-0.43-1.62c0-0.79,0.21-1.42,0.64-1.88c0.43-0.47,0.93-0.7,1.5-0.7
		c0.48,0,0.89,0.2,1.25,0.59C67.94,48.99,68.13,49.57,68.16,50.35z M66.92,50.01c0-0.54-0.03-0.91-0.09-1.12
		c-0.06-0.2-0.15-0.36-0.28-0.46c-0.07-0.06-0.16-0.09-0.28-0.09c-0.18,0-0.32,0.09-0.43,0.26c-0.2,0.3-0.3,0.71-0.3,1.23v0.18
		H66.92z"/>
	<path class="st6" d="M70.4,48.15v1.07c0.31-0.49,0.59-0.81,0.82-0.97c0.23-0.16,0.46-0.24,0.68-0.24c0.19,0,0.34,0.06,0.45,0.18
		c0.12,0.11,0.17,0.27,0.17,0.49c0,0.23-0.06,0.4-0.17,0.53c-0.11,0.13-0.24,0.19-0.39,0.19c-0.18,0-0.34-0.06-0.47-0.17
		c-0.13-0.11-0.21-0.18-0.23-0.19l-0.11-0.03c-0.1,0-0.19,0.04-0.28,0.11c-0.14,0.12-0.24,0.28-0.31,0.49
		c-0.11,0.33-0.16,0.69-0.16,1.08v1.09l0,0.28c0,0.19,0.01,0.32,0.04,0.37l0.18,0.2c0.08,0.04,0.21,0.07,0.41,0.08v0.18h-2.56V52.7
		c0.2-0.02,0.34-0.07,0.42-0.17c0.08-0.1,0.11-0.35,0.11-0.76v-2.62c0-0.27-0.01-0.45-0.04-0.52c-0.03-0.09-0.08-0.17-0.14-0.21
		c-0.07-0.04-0.18-0.07-0.34-0.09v-0.19H70.4z"/>
	<path class="st6" d="M74.77,48.15v0.61c0.24-0.26,0.47-0.45,0.69-0.57c0.22-0.12,0.46-0.18,0.72-0.18c0.31,0,0.56,0.09,0.76,0.26
		c0.2,0.17,0.34,0.38,0.4,0.63c0.06,0.19,0.08,0.56,0.08,1.11v1.84c0,0.36,0.03,0.59,0.1,0.68c0.07,0.08,0.21,0.14,0.42,0.17v0.18
		h-2.39V52.7c0.18-0.02,0.31-0.1,0.38-0.22c0.05-0.08,0.08-0.29,0.08-0.63v-2.1c0-0.39-0.02-0.64-0.05-0.73
		c-0.03-0.1-0.08-0.18-0.16-0.23l-0.24-0.08c-0.29,0-0.56,0.21-0.81,0.62v2.53c0,0.36,0.03,0.58,0.09,0.67
		c0.07,0.1,0.19,0.15,0.37,0.18v0.18h-2.39V52.7c0.2-0.02,0.34-0.08,0.42-0.19c0.06-0.08,0.09-0.29,0.09-0.66v-2.67
		c0-0.35-0.03-0.58-0.1-0.67c-0.07-0.08-0.2-0.14-0.41-0.17v-0.19H74.77z"/>
	<path class="st6" d="M80.25,48.15v0.62c0.26-0.28,0.5-0.48,0.72-0.59c0.22-0.12,0.47-0.17,0.73-0.17c0.3,0,0.56,0.07,0.76,0.21
		c0.2,0.14,0.37,0.36,0.48,0.65c0.27-0.3,0.53-0.52,0.78-0.65c0.25-0.14,0.51-0.2,0.78-0.2c0.33,0,0.58,0.07,0.78,0.23
		c0.2,0.15,0.33,0.34,0.41,0.57c0.07,0.23,0.12,0.6,0.12,1.1v1.94c0,0.36,0.03,0.59,0.09,0.68c0.07,0.09,0.21,0.15,0.42,0.17v0.18
		h-2.44V52.7c0.19-0.02,0.33-0.09,0.43-0.22c0.06-0.09,0.09-0.3,0.09-0.63v-2.03c0-0.42-0.02-0.69-0.05-0.8
		c-0.03-0.12-0.09-0.2-0.16-0.25c-0.07-0.06-0.16-0.09-0.25-0.09c-0.15,0-0.29,0.06-0.44,0.16c-0.15,0.1-0.3,0.26-0.45,0.48v2.54
		c0,0.34,0.03,0.55,0.09,0.64c0.08,0.12,0.22,0.19,0.44,0.21v0.18H81.1V52.7c0.13,0,0.23-0.04,0.31-0.09l0.16-0.21
		c0.02-0.08,0.04-0.26,0.04-0.54v-2.03c0-0.43-0.02-0.7-0.05-0.8c-0.03-0.11-0.09-0.19-0.17-0.25l-0.25-0.09
		c-0.14,0-0.26,0.04-0.37,0.11c-0.16,0.11-0.33,0.28-0.5,0.54v2.54c0,0.33,0.03,0.55,0.09,0.66c0.07,0.11,0.21,0.16,0.42,0.19v0.18
		h-2.44V52.7c0.2-0.02,0.34-0.08,0.42-0.19c0.05-0.08,0.09-0.29,0.09-0.66v-2.67c0-0.35-0.03-0.58-0.1-0.67
		c-0.06-0.08-0.2-0.14-0.41-0.17v-0.19H80.25z"/>
	<path class="st8" d="M90.5,50.35h-2.6c0.03,0.62,0.2,1.12,0.5,1.49c0.23,0.28,0.51,0.42,0.84,0.42c0.2,0,0.39-0.06,0.55-0.17
		c0.16-0.11,0.34-0.32,0.53-0.61l0.17,0.11c-0.26,0.52-0.54,0.89-0.85,1.11c-0.31,0.22-0.67,0.32-1.08,0.32
		c-0.7,0-1.23-0.27-1.59-0.81c-0.29-0.43-0.43-0.98-0.43-1.62c0-0.79,0.21-1.42,0.64-1.88c0.43-0.47,0.93-0.7,1.5-0.7
		c0.48,0,0.89,0.2,1.24,0.59C90.29,48.99,90.48,49.57,90.5,50.35z M89.26,50.01c0-0.54-0.03-0.91-0.09-1.12
		c-0.06-0.2-0.15-0.36-0.27-0.46c-0.07-0.06-0.17-0.09-0.28-0.09c-0.18,0-0.32,0.09-0.43,0.26c-0.2,0.3-0.3,0.71-0.3,1.23v0.18
		H89.26z"/>
	<path class="st6" d="M92.61,48.15v0.61c0.24-0.26,0.47-0.45,0.7-0.57c0.22-0.12,0.46-0.18,0.72-0.18c0.31,0,0.56,0.09,0.77,0.26
		c0.2,0.17,0.34,0.38,0.41,0.63c0.05,0.19,0.08,0.56,0.08,1.11v1.84c0,0.36,0.03,0.59,0.09,0.68c0.07,0.08,0.21,0.14,0.42,0.17v0.18
		H93.4V52.7c0.18-0.02,0.31-0.1,0.39-0.22c0.05-0.08,0.08-0.29,0.08-0.63v-2.1c0-0.39-0.02-0.64-0.05-0.73
		c-0.03-0.1-0.08-0.18-0.16-0.23l-0.24-0.08c-0.29,0-0.56,0.21-0.81,0.62v2.53c0,0.36,0.03,0.58,0.1,0.67
		c0.07,0.1,0.19,0.15,0.37,0.18v0.18h-2.39V52.7c0.2-0.02,0.34-0.08,0.43-0.19c0.06-0.08,0.09-0.29,0.09-0.66v-2.67
		c0-0.35-0.03-0.58-0.1-0.67c-0.06-0.08-0.2-0.14-0.41-0.17v-0.19H92.61z"/>
	<path class="st6" d="M97.8,46.42v1.73h1.12v0.5H97.8v2.91c0,0.27,0.01,0.45,0.04,0.53l0.14,0.19l0.18,0.07
		c0.22,0,0.43-0.17,0.62-0.5l0.15,0.11c-0.27,0.65-0.72,0.97-1.33,0.97c-0.3,0-0.56-0.08-0.76-0.24c-0.21-0.17-0.34-0.36-0.4-0.56
		c-0.04-0.11-0.05-0.42-0.05-0.93v-2.55h-0.62v-0.18c0.42-0.3,0.79-0.61,1.08-0.95c0.3-0.33,0.56-0.7,0.79-1.11H97.8z"/>
	<g>
		<path class="st0" d="M464.56,43.21h-3.28l-1.85,6.37h-0.04l-1.85-6.37h-3.39l2.52,6.8c0.19,0.53,0.81,2.03,0.81,2.56
			c0,0.68-0.55,1.09-1.28,1.09h-1.11v2.6h1.51c2.17,0,3.32-0.26,4.09-2.41L464.56,43.21 M455.26,43.21h-1.98v-2.96h-3.2v2.96h-1.62
			v2.07h1.62v4.35c0,2.65,0.7,3.44,3.43,3.44c0.58,0,1.17-0.07,1.75-0.09v-2.35c-0.28,0-0.56,0.04-0.83,0.04
			c-0.7,0-1.15-0.17-1.15-0.94v-4.44h1.98V43.21z M448.42,39.53h-3.2v2.45h3.2V39.53z M445.22,52.98h3.2v-9.77h-3.2V52.98z
			 M438.51,52.98h3.2v-4.84c0-1.22,0.83-2.31,2.41-2.31c0.43,0,0.81,0.07,1.22,0.19v-2.92c-0.24-0.06-0.51-0.08-0.76-0.08
			c-1.37,0-2.47,0.66-2.94,1.91h-0.04v-1.72h-3.11V52.98z M427.74,48.11c0,2.94,2.11,5.16,5.14,5.16c3.03,0,5.16-2.22,5.16-5.16
			c0-2.94-2.13-5.18-5.16-5.18C429.85,42.92,427.74,45.17,427.74,48.11 M430.94,48.11c0-1.24,0.45-2.73,1.94-2.73
			c1.49,0,1.96,1.49,1.96,2.73c0,1.24-0.47,2.71-1.96,2.71C431.39,50.82,430.94,49.35,430.94,48.11 M417.67,52.98h3.2v-5.33
			c0-1.08,0.53-2.09,1.73-2.09c1.75,0,1.6,1.35,1.6,2.69v4.73h3.2v-6.27c0-1.41-0.26-3.79-3.52-3.79c-1.17,0-2.49,0.62-2.98,1.62
			h-0.04v-5.01h-3.2V52.98z M417.55,43.21h-1.98v-2.96h-3.2v2.96h-1.62v2.07h1.62v4.35c0,2.65,0.7,3.44,3.43,3.44
			c0.58,0,1.17-0.07,1.75-0.09v-2.35c-0.28,0-0.56,0.04-0.83,0.04c-0.7,0-1.15-0.17-1.15-0.94v-4.44h1.98V43.21z M410.83,43.21h-3.2
			v5.24c0,1.73-1.05,2.19-1.75,2.19c-1.02,0-1.58-0.45-1.58-1.75v-5.67h-3.2v5.88c0,2.56,0.81,4.18,3.62,4.18
			c1.13,0,2.37-0.62,2.98-1.62h0.04v1.34h3.11V43.21z M387.93,52.98h3.6l0.85-2.41h4.69l0.83,2.41h3.65l-5.03-13.45h-3.56
			L387.93,52.98z M394.71,43.26h0.04l1.49,4.71h-3.05L394.71,43.26z M377.57,46.22c0.15-0.83,0.71-1.22,1.6-1.22
			c0.66,0,1.54,0.28,1.54,1.02c0,0.6-0.3,0.79-0.85,0.9c-2.22,0.45-5.69,0.21-5.69,3.39c0,2.02,1.47,2.96,3.33,2.96
			c1.17,0,2.39-0.34,3.22-1.21c0.04,0.32,0.07,0.62,0.19,0.92h3.22c-0.38-0.77-0.38-1.68-0.38-2.51V46.2c0-2.77-2.24-3.28-4.56-3.28
			c-1.11,0-2.24,0.19-3.11,0.68c-0.87,0.51-1.47,1.34-1.53,2.62H377.57z M377.38,50.17c0-0.77,0.6-1.07,1.32-1.24
			c0.7-0.19,1.53-0.25,1.98-0.52c0.07,2.01-0.43,2.88-1.96,2.88C378,51.29,377.38,50.97,377.38,50.17 M373.76,39.53h-3.2v2.45h3.2
			V39.53z M370.56,52.98h3.2v-9.77h-3.2V52.98z M369.58,39.53h-3.2v4.73h-0.04c-0.66-0.88-1.58-1.34-2.79-1.34
			c-2.77,0-4.12,2.41-4.12,4.95c0,2.75,1.3,5.39,4.37,5.39c1.13,0,2.07-0.49,2.69-1.41h0.04v1.13h3.05V39.53z M364.59,45.37
			c1.39,0,1.9,1.3,1.9,2.71c0,1.24-0.34,2.73-1.9,2.73c-1.47,0-1.96-1.49-1.96-2.83C362.63,46.75,363.12,45.37,364.59,45.37
			 M359.62,48.88c0.15-3.31-1.6-5.95-5.1-5.95c-2.88,0-5.27,2.15-5.27,5.14c0,3.28,2.17,5.2,5.35,5.2c2.18,0,4.27-0.98,4.86-3.24h-3
			c-0.3,0.72-1.05,1.07-1.83,1.07c-1.36,0-2.13-0.88-2.19-2.22H359.62z M352.45,47.09c0.19-1.19,0.94-2,2.07-2
			c1.07,0,1.84,0.9,1.9,2H352.45z M333.74,52.98h3.3V42.77h0.04l2.83,10.21h2.68l2.83-10.21h0.04v10.21h3.3V39.53h-5.16l-2.32,8.96
			h-0.04l-2.32-8.96h-5.16V52.98z M328.11,39.53h-3.2v4.73h-0.04c-0.66-0.88-1.58-1.34-2.79-1.34c-2.77,0-4.12,2.41-4.12,4.95
			c0,2.75,1.3,5.39,4.37,5.39c1.13,0,2.07-0.49,2.69-1.41h0.04v1.13h3.05V39.53z M323.12,45.37c1.4,0,1.9,1.3,1.9,2.71
			c0,1.24-0.34,2.73-1.9,2.73c-1.47,0-1.96-1.49-1.96-2.83C321.16,46.75,321.65,45.37,323.12,45.37 M307.89,52.98h3.2v-5.33
			c0-1.08,0.53-2.09,1.73-2.09c1.75,0,1.6,1.35,1.6,2.69v4.73h3.2v-6.27c0-1.41-0.26-3.79-3.52-3.79c-1.17,0-2.49,0.62-3.07,1.62
			h-0.04v-1.34h-3.11V52.98z M300.9,46.22c0.15-0.83,0.72-1.22,1.6-1.22c0.66,0,1.54,0.28,1.54,1.02c0,0.6-0.3,0.79-0.85,0.9
			c-2.22,0.45-5.69,0.21-5.69,3.39c0,2.02,1.47,2.96,3.33,2.96c1.17,0,2.39-0.34,3.22-1.21c0.04,0.32,0.08,0.62,0.19,0.92h3.22
			c-0.38-0.77-0.38-1.68-0.38-2.51V46.2c0-2.77-2.24-3.28-4.56-3.28c-1.11,0-2.24,0.19-3.11,0.68c-0.86,0.51-1.47,1.34-1.53,2.62
			H300.9z M300.71,50.17c0-0.77,0.6-1.07,1.32-1.24c0.7-0.19,1.53-0.25,1.98-0.52c0.08,2.01-0.43,2.88-1.96,2.88
			C301.33,51.29,300.71,50.97,300.71,50.17"/>
		<path class="st0" d="M428.93,30.93c0.09,2.73,2.47,3.5,4.78,3.5c2.2,0,4.69-0.87,4.69-3.48c0-0.81-0.51-2.24-2.49-2.64
			c-1.47-0.32-3.62-0.49-3.62-1.41c0-0.68,0.85-0.73,1.37-0.73c0.4,0,0.75,0.08,1.02,0.24c0.26,0.17,0.41,0.43,0.41,0.85h2.96
			c-0.11-2.54-2.35-3.16-4.5-3.16c-1.92,0-4.46,0.64-4.46,2.99c0,2.64,2.52,2.7,4.54,3.2c0.56,0.13,1.56,0.28,1.56,1.04
			c0,0.77-0.89,1.04-1.51,1.04c-0.45,0-0.89-0.11-1.19-0.34c-0.32-0.25-0.53-0.6-0.53-1.09H428.93 M418.95,34.15h3.2v-5.33
			c0-1.07,0.53-2.09,1.73-2.09c1.75,0,1.6,1.36,1.6,2.69v4.73h3.2v-6.27c0-1.41-0.26-3.78-3.52-3.78c-1.17,0-2.49,0.62-3.07,1.62
			h-0.04v-1.34h-3.11V34.15z M408.29,29.27c0,2.94,2.11,5.16,5.14,5.16c3.03,0,5.16-2.22,5.16-5.16c0-2.94-2.13-5.18-5.16-5.18
			C410.4,24.09,408.29,26.33,408.29,29.27 M411.49,29.27c0-1.24,0.45-2.73,1.94-2.73c1.49,0,1.96,1.49,1.96,2.73
			c0,1.25-0.47,2.71-1.96,2.71C411.94,31.98,411.49,30.51,411.49,29.27 M407.82,20.7h-3.2v2.45h3.2V20.7z M404.62,34.15h3.2v-9.77
			h-3.2V34.15z M404.39,24.37h-1.98v-2.96h-3.2v2.96h-1.62v2.07h1.62v4.35c0,2.66,0.7,3.45,3.43,3.45c0.58,0,1.17-0.08,1.75-0.1
			v-2.36c-0.28,0-0.56,0.04-0.83,0.04c-0.7,0-1.15-0.17-1.15-0.94v-4.45h1.98V24.37z M391.51,27.39c0.15-0.83,0.72-1.22,1.6-1.22
			c0.66,0,1.54,0.28,1.54,1.02c0,0.6-0.3,0.79-0.85,0.9c-2.22,0.45-5.69,0.21-5.69,3.39c0,2.02,1.47,2.96,3.33,2.96
			c1.17,0,2.39-0.34,3.22-1.21c0.04,0.32,0.07,0.62,0.19,0.92h3.22c-0.38-0.77-0.38-1.68-0.38-2.5v-4.28c0-2.77-2.24-3.28-4.56-3.28
			c-1.11,0-2.24,0.19-3.11,0.68c-0.87,0.51-1.47,1.34-1.52,2.62H391.51z M391.32,31.34c0-0.77,0.6-1.07,1.32-1.24
			c0.7-0.19,1.53-0.25,1.98-0.53c0.08,2.01-0.43,2.88-1.96,2.88C391.94,32.45,391.32,32.13,391.32,31.34 M388.27,27.95
			c-0.23-2.58-2.39-3.86-4.82-3.86c-3.14,0-5.12,2.22-5.12,5.33c0,3,2.18,5.01,5.12,5.01c2.6,0,4.63-1.51,4.92-4.12h-3.11
			c-0.15,1.03-0.72,1.67-1.83,1.67c-1.36,0-1.9-1.3-1.9-2.56c0-1.35,0.28-2.88,2.07-2.88c0.81,0,1.55,0.59,1.56,1.41H388.27z
			 M377.85,20.7h-3.2v2.45h3.2V20.7z M374.65,34.15h3.2v-9.77h-3.2V34.15z M363.99,34.15h3.2v-5.33c0-1.07,0.53-2.09,1.73-2.09
			c1.75,0,1.6,1.36,1.6,2.69v4.73h3.2v-6.27c0-1.41-0.26-3.78-3.52-3.78c-1.17,0-2.49,0.62-3.07,1.62h-0.04v-1.34h-3.11V34.15z
			 M363.16,24.37h-3.2v5.24c0,1.73-1.05,2.18-1.75,2.18c-1.02,0-1.58-0.45-1.58-1.75v-5.67h-3.2v5.88c0,2.56,0.81,4.18,3.62,4.18
			c1.13,0,2.37-0.62,2.97-1.62h0.04v1.34h3.11V24.37z M337.32,34.15h3.2v-4.77c0-2,0.49-2.65,1.64-2.65c0.87,0,1.21,0.72,1.21,1.86
			v5.56h3.2v-4.78c0-1.58,0.13-2.64,1.51-2.64c0.83,0,1.34,0.62,1.34,1.68v5.74h3.2v-5.84c0-1.86-0.34-4.22-3.45-4.22
			c-1.32,0-2.28,0.55-3.05,1.58c-0.52-1.19-1.62-1.58-2.84-1.58c-1.19,0-2.22,0.64-2.81,1.62h-0.04v-1.34h-3.11V34.15z M321.2,34.15
			h3.2v-4.77c0-2,0.49-2.65,1.64-2.65c0.87,0,1.2,0.72,1.2,1.86v5.56h3.2v-4.78c0-1.58,0.13-2.64,1.51-2.64
			c0.83,0,1.34,0.62,1.34,1.68v5.74h3.2v-5.84c0-1.86-0.34-4.22-3.45-4.22c-1.32,0-2.28,0.55-3.05,1.58
			c-0.53-1.19-1.62-1.58-2.84-1.58c-1.19,0-2.22,0.64-2.81,1.62h-0.04v-1.34h-3.11V34.15z M310.54,29.27c0,2.94,2.11,5.16,5.14,5.16
			c3.03,0,5.16-2.22,5.16-5.16c0-2.94-2.13-5.18-5.16-5.18C312.65,24.09,310.54,26.33,310.54,29.27 M313.74,29.27
			c0-1.24,0.45-2.73,1.94-2.73c1.49,0,1.96,1.49,1.96,2.73c0,1.25-0.47,2.71-1.96,2.71C314.19,31.98,313.74,30.51,313.74,29.27
			 M310.6,25.5c-0.09-3.24-3.24-5.08-6.14-5.08c-4.07,0-6.71,3.11-6.71,7c0,3.9,2.64,7.01,6.71,7.01c3.41,0,5.95-2.03,6.14-5.5h-3.5
			c-0.13,1.55-1.07,2.49-2.71,2.49c-2.26,0-3.13-2-3.13-3.99c0-2,0.87-3.99,3.13-3.99c1.47,0,2.52,0.72,2.71,2.07H310.6z"/>
		<path class="st0" d="M370.6,15.31h3.2V9.99c0-1.08,0.53-2.09,1.73-2.09c1.75,0,1.6,1.35,1.6,2.69v4.73h3.2V9.04
			c0-1.41-0.26-3.79-3.52-3.79c-1.17,0-2.49,0.62-3.07,1.62h-0.04V5.54h-3.11V15.31 M363.61,8.55c0.15-0.83,0.71-1.22,1.6-1.22
			c0.66,0,1.54,0.28,1.54,1.02c0,0.6-0.3,0.79-0.85,0.9c-2.22,0.45-5.69,0.21-5.69,3.39c0,2.01,1.47,2.96,3.33,2.96
			c1.17,0,2.39-0.34,3.22-1.21c0.04,0.32,0.08,0.62,0.19,0.92h3.22c-0.38-0.77-0.38-1.68-0.38-2.5V8.53c0-2.77-2.24-3.28-4.56-3.28
			c-1.11,0-2.24,0.19-3.11,0.68c-0.87,0.51-1.47,1.34-1.53,2.62H363.61z M363.42,12.51c0-0.77,0.6-1.07,1.32-1.24
			c0.7-0.19,1.52-0.25,1.98-0.53c0.08,2.01-0.43,2.88-1.96,2.88C364.05,13.62,363.42,13.3,363.42,12.51 M359.81,1.87h-3.2v2.45h3.2
			V1.87z M356.61,15.31h3.2V5.54h-3.2V15.31z M352.35,15.31h3.2V1.87h-3.2V15.31z M345.25,8.55c0.15-0.83,0.72-1.22,1.6-1.22
			c0.66,0,1.54,0.28,1.54,1.02c0,0.6-0.3,0.79-0.85,0.9c-2.22,0.45-5.69,0.21-5.69,3.39c0,2.01,1.47,2.96,3.33,2.96
			c1.17,0,2.39-0.34,3.22-1.21c0.04,0.32,0.07,0.62,0.19,0.92h3.22c-0.38-0.77-0.38-1.68-0.38-2.5V8.53c0-2.77-2.24-3.28-4.56-3.28
			c-1.11,0-2.24,0.19-3.11,0.68c-0.87,0.51-1.47,1.34-1.53,2.62H345.25z M345.07,12.51c0-0.77,0.6-1.07,1.32-1.24
			c0.7-0.19,1.53-0.25,1.98-0.53c0.07,2.01-0.43,2.88-1.96,2.88C345.68,13.62,345.07,13.3,345.07,12.51 M335.8,15.31h3.2v-4.84
			c0-1.22,0.83-2.32,2.41-2.32c0.43,0,0.81,0.07,1.22,0.19V5.43c-0.24-0.06-0.51-0.08-0.75-0.08c-1.37,0-2.47,0.66-2.94,1.91h-0.04
			V5.54h-3.11V15.31z M335.57,5.54h-1.98V2.58h-3.2v2.96h-1.62v2.07h1.62v4.35c0,2.65,0.7,3.44,3.43,3.44
			c0.58,0,1.17-0.07,1.75-0.09v-2.35c-0.28,0-0.56,0.04-0.83,0.04c-0.7,0-1.15-0.17-1.15-0.94V7.61h1.98V5.54z M319.96,12.09
			c0.09,2.73,2.47,3.5,4.78,3.5c2.2,0,4.69-0.87,4.69-3.49c0-0.81-0.51-2.24-2.49-2.64c-1.47-0.32-3.62-0.49-3.62-1.41
			c0-0.68,0.85-0.74,1.38-0.74c0.4,0,0.75,0.08,1.02,0.25c0.26,0.17,0.41,0.43,0.41,0.85h2.96c-0.11-2.54-2.35-3.16-4.5-3.16
			c-1.92,0-4.46,0.64-4.46,3c0,2.64,2.52,2.69,4.54,3.2c0.57,0.13,1.56,0.28,1.56,1.04c0,0.77-0.89,1.04-1.51,1.04
			c-0.45,0-0.89-0.11-1.19-0.34c-0.32-0.25-0.53-0.6-0.53-1.09H319.96z M319.69,5.54h-3.2v5.24c0,1.73-1.06,2.18-1.75,2.18
			c-1.02,0-1.58-0.45-1.58-1.75V5.54h-3.2v5.88c0,2.56,0.81,4.18,3.62,4.18c1.13,0,2.38-0.62,2.98-1.62h0.04v1.34h3.11V5.54z
			 M296.79,15.31h3.6l0.85-2.41h4.69l0.83,2.41h3.65l-5.03-13.45h-3.56L296.79,15.31z M303.57,5.6h0.04l1.49,4.71h-3.05L303.57,5.6z
			"/>
	</g>
</g>
</svg>
