<svg width="64" height="64" viewBox="0 0 64 64" fill="none" xmlns="http://www.w3.org/2000/svg">
  <rect width="64" height="64" rx="14" fill="#0A1638"/>
  <circle cx="32" cy="32" r="19" fill="#0B9D82" opacity="0.16"/>
  <path d="M42.2 22.8C39.7 20.6 36.5 19.5 32.5 19.5C24.6 19.5 19 24.9 19 32.6C19 40.1 24.4 45.5 32.1 45.5C36.3 45.5 39.6 44.1 42.2 41.6L38.6 37.9C36.9 39.5 34.9 40.3 32.4 40.3C27.8 40.3 24.5 37 24.5 32.5C24.5 27.9 27.9 24.7 32.5 24.7C34.8 24.7 36.8 25.4 38.5 26.9L42.2 22.8Z" fill="white"/>
</svg>
